<?xml version="1.0" encoding="UTF-8"?>
<svg id="Layer_2" data-name="Layer 2" xmlns="http://www.w3.org/2000/svg" viewBox="0 0 394 677">
  <defs>
    <style>
      .cls-1 {
        fill: #181569;
      }

      .cls-2 {
        fill: #191662;
      }

      .cls-3 {
        fill: #1a175b;
      }

      .cls-4 {
        fill: #1c194d;
      }

      .cls-5 {
        fill: #1d1a46;
      }

      .cls-6 {
        fill: #0403e6;
      }

      .cls-7 {
        fill: #0201f5;
      }

      .cls-8 {
        fill: #001373;
      }

      .cls-9 {
        fill: #f3f3fe;
      }

      .cls-10 {
        fill: #0c0ab5;
      }

      .cls-11 {
        fill: #4444fe;
      }

      .cls-12 {
        fill: #110f93;
      }

      .cls-13 {
        fill: #100e99;
      }

      .cls-14 {
        fill: #0504de;
      }

      .cls-15 {
        fill: #1b1854;
      }

      .cls-16 {
        fill: #0f0da0;
      }

      .cls-17 {
        fill: #211d2b;
      }

      .cls-18 {
        fill: #b7b7fe;
      }

      .cls-19 {
        fill: #f1f1fe;
      }

      .cls-20 {
        fill: #0302ee;
      }

      .cls-21 {
        fill: none;
      }

      .cls-22 {
        fill: #0908c4;
      }

      .cls-23 {
        fill: #e7e7fe;
      }

      .cls-24 {
        fill: #7f7ffe;
      }

      .cls-25 {
        fill: #0908c3;
      }

      .cls-26 {
        fill: #0807cb;
      }

      .cls-27 {
        fill: #1a175a;
      }

      .cls-28 {
        fill: #0201fa;
      }

      .cls-29 {
        fill: #1f1c37;
      }

      .cls-30 {
        fill: #201d31;
      }

      .cls-31 {
        fill: #191661;
      }

      .cls-32 {
        fill: #161470;
      }

      .cls-33 {
        fill: #0404e2;
      }

      .cls-34 {
        fill: #16146f;
      }

      .cls-35 {
        fill: #0403e7;
      }

      .cls-36 {
        fill: #1c194c;
      }

      .cls-37 {
        fill: #babafe;
      }

      .cls-38 {
        fill: #181568;
      }

      .cls-39 {
        fill: #171470;
      }

      .cls-40 {
        fill: #201d30;
      }

      .cls-41 {
        fill: #0201f4;
      }

      .cls-42 {
        fill: #221e25;
      }

      .cls-43 {
        fill: #0101fa;
      }

      .cls-44 {
        fill: #1e1b3f;
      }

      .cls-45 {
        fill: #0202f4;
      }

      .cls-46 {
        fill: #0a09bc;
      }

      .cls-47 {
        fill: #171569;
      }

      .cls-48 {
        fill: #1a1767;
      }

      .cls-49 {
        fill: #1f1c38;
      }

      .cls-50 {
        fill: #0504df;
      }

      .cls-51 {
        fill: #0b0ab7;
      }

      .cls-52 {
        fill: #0d0bae;
      }

      .cls-53 {
        fill: #0303f8;
      }

      .cls-54 {
        fill: #0c0bb2;
      }

      .cls-55 {
        fill: #18156f;
      }

      .cls-56 {
        fill: #0605d8;
      }

      .cls-57 {
        fill: #0706d2;
      }

      .cls-58 {
        fill: #151376;
      }

      .cls-59 {
        fill: #0c0ab4;
      }

      .cls-60 {
        fill: #bebefe;
      }

      .cls-61 {
        fill: #1e1b3c;
      }

      .cls-62 {
        fill: #fcfcfe;
      }

      .cls-63 {
        fill: #0b0ab6;
      }

      .cls-64 {
        fill: #0807ca;
      }

      .cls-65 {
        fill: #211e2a;
      }

      .cls-66 {
        fill: #0000fe;
      }

      .cls-67 {
        fill: #0b0ab5;
      }

      .cls-68 {
        fill: #bdbdfe;
      }

      .cls-69 {
        fill: #1b1853;
      }

      .cls-70 {
        fill: #110f92;
      }

      .cls-71 {
        fill: #12108b;
      }

      .cls-72 {
        fill: #b9b9fe;
      }

      .cls-73 {
        fill: #0e0ca7;
      }

      .cls-74 {
        fill: #fefefe;
      }

      .cls-75 {
        fill: #151377;
      }

      .cls-76 {
        fill: #131185;
      }

      .cls-77 {
        fill: #0c0baf;
      }

      .cls-78 {
        fill: #12108c;
      }

      .cls-79 {
        fill: #14127e;
      }

      .cls-80 {
        fill: #0b0ab9;
      }

      .cls-81 {
        fill: #221f25;
      }

      .cls-82 {
        fill: #0706d1;
      }

      .cls-83 {
        fill: #0302ed;
      }

      .cls-84 {
        fill: #1f1b3c;
      }

      .cls-85 {
        fill: #efeffe;
      }
    </style>
  </defs>
  <g id="Layer_1-2" data-name="Layer 1">
    <g>
      <path class="cls-74" d="M0,674h1c-.28.87-.61.86-1,0Z"/>
      <path class="cls-74" d="M20,659l.09.46h0c-.01.69-.71,1.19-2.09,1.54,1.13-1.48-1.13-.37,2-2Z"/>
      <path class="cls-74" d="M18,661c-.12.44-.12.83.01,1.17h0c.12.35.37.65.74.89.19.13.4.23.64.33.89.36,2.19.56,3.9.61h-12.28c.09-2.02,3.72-.65,5.28-1,.71-.15,1.21-1.34,1.71-2Z"/>
      <path class="cls-74" d="M25,664c.97,2.41-1.15,3.53-6.36,3.35-.02,3.15-2.4,4.62-7.12,4.39l-1.16,2.59c-.25.19-1.96.45-3.86.55-.6.04-1.22.05-1.81.05h-.04c-.74-.01-1.44-.05-2.03-.14-.88-.14-1.51-.39-1.62-.79l9-1.01-2.99-1.98c1.91-1.51,9.24-1.58,10-2.02.18-.1-1.54-2.41.97-3.48,2.39-1.02,5.31.38,7.02-1.51Z"/>
      <path class="cls-74" d="M25,327c1.38-.45,2.36-.44,2.89.03.58.48.63,1.49.11,2.97-.96-1.01-2-1.94-3-3Z"/>
      <path class="cls-74" d="M28,330c1.39-.46,2.37-.44,2.9.02.18.16.3.36.38.61.16.56.08,1.35-.28,2.37-.98-1.01-1.99-1.95-3-3Z"/>
      <path class="cls-74" d="M34,336c-.99-1.01-1.99-1.97-3-3,2.89-.67,3.7.11,3,3Z"/>
      <path class="cls-74" d="M30,602c2.54-.22,4.19.65,4.79,2.46.23.71.31,1.56.21,2.54-1.66-1.68-3.33-3.28-5-5Z"/>
      <path class="cls-74" d="M36,338c-.65-.67-1.33-1.32-2-2,.97-.37,1.66-.37,2.01-.05.04.04.07.08.1.12.27.37.24,1.02-.11,1.93Z"/>
      <path class="cls-74" d="M35,607c2.68-.08,4.1,1.32,4,4-1.31-1.33-2.67-2.66-4-4Z"/>
      <path class="cls-74" d="M39,341c-.99-1-1.99-1.98-3-3,1.26-.23,2.16-.01,2.64.6.43.52.56,1.33.36,2.4Z"/>
      <path class="cls-74" d="M43,578l-.08,2.44c-5.8,5.13-11.05,10.64-15.75,16.55,1.35.75,2.25,1.54,2.72,2.38.47.83.51,1.7.11,2.63-.95-.98-5.98-4.7-5.98-5.5,6.14-4.79,12.58-14.68,18.98-18.5Z"/>
      <path class="cls-74" d="M43,345c-1.32-1.33-2.67-2.66-4-4,1.75-.05,2.96.53,3.56,1.68.33.61.47,1.39.44,2.32Z"/>
      <path class="cls-74" d="M44,616c-1.66-1.67-3.33-3.32-5-5,.87.08,1.64.27,2.29.59.98.47,1.71,1.2,2.16,2.19.3.63.48,1.38.55,2.22Z"/>
      <path class="cls-74" d="M43,345c3.02.26,4.76,1.98,5,5-1.65-1.67-3.34-3.32-5-5Z"/>
      <path class="cls-74" d="M49,621c-1.68-1.67-3.33-3.32-5-5,3.02.26,4.75,1.99,5,5Z"/>
      <path class="cls-74" d="M48,350c.88.08,1.65.27,2.3.59,1.6.78,2.53,2.27,2.7,4.41-1.65-1.67-3.34-3.33-5-5Z"/>
      <path class="cls-74" d="M52,624c-1.01-1-1.99-2.01-3-3,1.12-.21,1.95-.06,2.47.42.56.49.75,1.37.53,2.58Z"/>
      <path class="cls-74" d="M55,627c-1.01-1-1.99-2.01-3-3,1.26-.23,2.16-.02,2.64.6.43.52.55,1.33.36,2.4Z"/>
      <path class="cls-74" d="M56,358c-.99-1-2-1.99-3-3,1.12-.2,1.95-.06,2.47.42.56.49.75,1.37.53,2.58Z"/>
      <path class="cls-74" d="M58,630c-1.01-1-1.99-2.01-3-3,1.26-.23,2.16-.02,2.64.6.43.52.55,1.33.36,2.4Z"/>
      <path class="cls-74" d="M58,360c-.66-.67-1.33-1.33-2-2,1.98-.76,2.77.03,2,2Z"/>
      <path class="cls-74" d="M59,361c-.33-.33-.66-.67-1-1,.49-.24.8-.23.95.02.11.19.12.52.05.98Z"/>
      <path class="cls-74" d="M60,362c-.33-.33-.66-.67-1-1,.87-.43,1.17-.05,1,1Z"/>
      <path class="cls-74" d="M60,632c-.68-.67-1.33-1.34-2-2,1.97-.77,2.76.03,2,2Z"/>
      <path class="cls-74" d="M62,364c-.66-.67-1.33-1.33-2-2,.99-.38,1.69-.37,2.04-.02.12.13.2.31.23.52.06.38-.03.88-.27,1.5Z"/>
      <path class="cls-74" d="M60,632c1.01-.19,1.79-.09,2.31.29.12.07.23.17.32.29.43.52.56,1.34.37,2.42-1-.99-2-2.02-3-3Z"/>
      <path class="cls-74" d="M63,365c-.33-.33-.66-.67-1-1,.87-.43,1.17-.05,1,1Z"/>
      <path class="cls-74" d="M65,556l.33,1.71c-.19.2-.38.4-.57.59-6.85,7.12-14.1,13.69-21.76,19.7,2.8-2.91,20.11-21.8,22-22Z"/>
      <path class="cls-74" d="M63,635c2.86-.97,3.94.14,3,3-1.06-1.01-1.98-1.99-3-3Z"/>
      <path class="cls-74" d="M67,369c-1.32-1.33-2.67-2.67-4-4,2.68-.09,4.1,1.32,4,4Z"/>
      <path class="cls-74" d="M67,369c.88.07,1.66.27,2.31.6,1.6.77,2.52,2.26,2.69,4.4-1.65-1.66-3.34-3.33-5-5Z"/>
      <path class="cls-74" d="M73,1V0c.88.28.86.62,0,1Z"/>
      <path class="cls-74" d="M76,378c-1.32-1.33-2.67-2.66-4-4,.97-.03,1.77.13,2.4.48.51.28.9.69,1.17,1.21.31.61.46,1.39.43,2.31Z"/>
      <path class="cls-74" d="M81,383l-5-5c2.19.18,3.7,1.14,4.45,2.8.3.63.48,1.37.55,2.2Z"/>
      <path class="cls-74" d="M21.44,322.01c8.49-5.99,57.25-60.55,61.56-61.01l.11,2.14c-20.04,19.92-40.03,39.9-59.97,59.95,1.95.97,2.57,2.28,1.86,3.91-1.26-1.34-4.85-2.47-3.56-4.99Z"/>
      <path class="cls-74" d="M85,387c-1.32-1.33-2.67-2.67-4-4,1.76-.06,2.97.53,3.57,1.69.31.61.46,1.39.43,2.31Z"/>
      <path class="cls-74" d="M90,392l-5-5c3.02.25,4.76,1.98,5,5Z"/>
      <path class="cls-74" d="M95,397c-1.66-1.66-3.33-3.34-5-5,.88.07,1.66.27,2.31.6,1.6.77,2.52,2.26,2.69,4.4Z"/>
      <path class="cls-74" d="M99,401l-4-4c.98-.03,1.79.13,2.42.49.5.28.88.69,1.15,1.2.31.61.46,1.39.43,2.31Z"/>
      <path class="cls-74" d="M104,406c-1.66-1.66-3.33-3.34-5-5,3.02.25,4.76,1.98,5,5Z"/>
      <path class="cls-74" d="M109,411c-1.66-1.66-3.33-3.34-5-5,.24.02.48.05.7.09,1.81.31,3.09,1.23,3.75,2.71.3.63.48,1.37.55,2.2Z"/>
      <path class="cls-74" d="M114,416c-1.66-1.66-3.33-3.34-5-5,3.02.25,4.75,1.98,5,5Z"/>
      <path class="cls-74" d="M105.28,240.73c-7.32,6.89-14.76,13.64-22.28,20.27,26.36-26.6,52.43-53.61,79-80-13.36,16.09-27.68,31.44-42.62,46.16-4.64,4.59-9.35,9.11-14.1,13.57Z"/>
      <path class="cls-74" d="M118,420l-4-4,.25-.23c.87-.69,1.95-.46,2.78.2.42.33.79.78,1.03,1.27.45.88.53,1.91-.06,2.76Z"/>
      <path class="cls-74" d="M123,425c-1.66-1.66-3.33-3.34-5-5,2.19.18,3.7,1.14,4.45,2.8.3.63.48,1.37.55,2.2Z"/>
      <path class="cls-74" d="M128,430l-5-5c2.4-1.88,6.61,2.52,5,5Z"/>
      <path class="cls-74" d="M132,434l-4-4c.98-.03,1.79.13,2.42.49.5.28.88.69,1.15,1.2.31.61.46,1.39.43,2.31Z"/>
      <path class="cls-74" d="M137,439c-1.66-1.66-3.33-3.34-5-5,2.17.18,3.68,1.13,4.44,2.77.31.64.49,1.38.56,2.23Z"/>
      <path class="cls-74" d="M66,638c1.25-.48,2.07-.32,2.73.21.53.42.96,1.07,1.44,1.8,23.12-22.87,46.34-45.65,69.67-68.31,14.35-13.94,28.73-27.84,43.16-41.7-37.43,37.39-74.32,75.37-112,112.54h-.99c-1.66-1.1-2.76-3.35-4.01-4.54Z"/>
      <path class="cls-74" d="M142,444c-1.66-1.66-3.33-3.34-5-5,3.02.25,4.76,1.98,5,5Z"/>
      <path class="cls-74" d="M146,448c-1.32-1.33-2.67-2.67-4-4,.96-.03,1.76.13,2.39.48,1.11.61,1.67,1.8,1.61,3.52Z"/>
      <path class="cls-74" d="M146,448c.88.07,1.65.27,2.31.59,1.6.77,2.52,2.27,2.69,4.41-1.65-1.66-3.34-3.34-5-5Z"/>
      <path class="cls-74" d="M150,676v1c-.87-.28-.86-.62,0-1Z"/>
      <path class="cls-74" d="M159,462c-1.73,2.44-3.49,4.85-5.37,7.17-1.87,2.32-3.75,4.62-5.84,6.7-25.13,24.99-50.37,49.89-75.83,74.53-2.13,2.07-4.51,3.87-6.96,5.6,30.75-31.9,62.48-62.88,94-94Z"/>
      <path class="cls-74" d="M151,453c3.03-.95,5,.97,4,4-1.25-1.31-2.69-2.69-4-4Z"/>
      <path class="cls-74" d="M159,462c-1.23-1.57-2.66-3.6-4-5,.94-.51,1.94-.37,2.76.15.7.44,1.28,1.15,1.58,1.94.38.97.35,2.06-.34,2.91Z"/>
      <polygon class="cls-74" points="162.54 178.71 162 181 28.08 47.36 28.94 45.47 73 1 73.77 3.07 73.02 3.83 30.54 46.79 162.54 178.71"/>
      <path class="cls-74" d="M190,524c-1.97,1.98-5.02,4.03-7,6-1.47-2.87,4.32-7.51,7-6Z"/>
      <path class="cls-74" d="M196.17,588.33c-3.51-21.22-5.21-42.83-6.17-64.33,2.68,10.9,4.11,22.23,4.3,33.97.42,4.08,6.05,52.68,8.7,53.17,4.38.8,11.83-80.21,12.52-87.98l1.48-3.16c-1.48,32.27-4.48,64.82-13.01,96-3.09,2.4-7.51-25.81-7.82-27.67Z"/>
      <path class="cls-74" d="M222,524c-1.39-1.34-3.43-2.77-5-4,.19-.18.41-.31.63-.41,1.47-.65,3.43.32,4.28,1.73.52.82.65,1.8.09,2.68Z"/>
      <path class="cls-74" d="M222,524c3.19-.71,4.67.82,4,4-1.32-1.31-2.68-2.73-4-4Z"/>
      <path class="cls-74" d="M226,528c2.68-.1,4.09,1.32,4,4-1.33-1.32-2.67-2.69-4-4Z"/>
      <path class="cls-74" d="M234,536c-1.33-1.33-2.67-2.68-4-4,.97-.03,1.77.13,2.4.48.5.28.88.67,1.15,1.18.33.62.48,1.4.45,2.34Z"/>
      <path class="cls-74" d="M238,540l-4-4c2.59-.09,4,1.23,4,3.74v.26Z"/>
      <path class="cls-74" d="M243,545c-1.66-1.66-3.33-3.34-5-5,3.02.25,4.75,1.98,5,5Z"/>
      <path class="cls-74" d="M247,549l-4-4c.97-.03,1.77.13,2.4.48.5.28.88.67,1.15,1.18.33.62.48,1.4.45,2.34Z"/>
      <path class="cls-74" d="M252,554c-1.66-1.66-3.33-3.34-5-5,3.02.25,4.75,1.98,5,5Z"/>
      <path class="cls-74" d="M256,466c-1.05.69-2.03.53-2.77-.08-.41-.32-.74-.79-.97-1.32-.34-.79-.46-1.72-.26-2.6,1.85.81,2.66,2.67,4,4Z"/>
      <path class="cls-74" d="M256,558l-4-4c.96-.03,1.76.13,2.39.48,1.11.61,1.67,1.8,1.61,3.52Z"/>
      <path class="cls-74" d="M260,470c-.96.04-1.75-.12-2.37-.47-1.12-.6-1.68-1.81-1.63-3.53,1.34,1.33,2.67,2.69,4,4Z"/>
      <path class="cls-74" d="M260,562l-4-4c.98-.03,1.79.13,2.42.49.5.28.88.69,1.15,1.2.31.61.46,1.39.43,2.31Z"/>
      <path class="cls-74" d="M260,470c1.35,1.33,2.67,2.67,4,4-2.67.09-4.07-1.32-4-4Z"/>
      <path class="cls-74" d="M264,566l-4-4c1.76-.06,2.97.53,3.57,1.69.31.61.46,1.39.43,2.31Z"/>
      <path class="cls-74" d="M264,474c1.68,1.66,3.34,3.34,5,5-.87-.07-1.63-.27-2.28-.58-1.61-.78-2.54-2.27-2.72-4.42Z"/>
      <path class="cls-74" d="M269,571l-5-5c2.4-1.88,6.61,2.52,5,5Z"/>
      <path class="cls-74" d="M269,479c1.34,1.33,2.67,2.67,4,4-2.67.09-4.08-1.32-4-4Z"/>
      <path class="cls-74" d="M273,575l-4-4c.98-.03,1.79.13,2.42.49,1.09.62,1.64,1.81,1.58,3.51Z"/>
      <path class="cls-74" d="M273,483l4,4c-1.58.05-2.72-.42-3.36-1.37-.46-.65-.68-1.54-.64-2.63Z"/>
      <path class="cls-74" d="M277,579l-4-4,.3-.28.03-.02c.85-.61,1.88-.38,2.69.25.42.33.78.77,1.03,1.26.45.88.54,1.92-.05,2.79Z"/>
      <path class="cls-74" d="M277,487c1.34,1.33,2.67,2.67,4,4-.96.03-1.76-.13-2.38-.48-.5-.28-.9-.68-1.16-1.19-.33-.62-.49-1.4-.46-2.33Z"/>
      <path class="cls-74" d="M282,584c-1.66-1.66-3.33-3.34-5-5,3.02.25,4.75,1.98,5,5Z"/>
      <path class="cls-74" d="M281,491c1.34,1.33,2.67,2.67,4,4-2.67.09-4.08-1.32-4-4Z"/>
      <path class="cls-74" d="M286,588c-1.33-1.33-2.66-2.67-4-4,1.76-.06,2.97.53,3.57,1.69.31.61.46,1.39.43,2.31Z"/>
      <path class="cls-74" d="M285,495c1.67,1.66,3.34,3.34,5,5-3.02-.25-4.75-1.98-5-5Z"/>
      <path class="cls-74" d="M290,592c-1.33-1.33-2.66-2.67-4-4,2.68-.09,4.09,1.32,4,4Z"/>
      <path class="cls-74" d="M290,500c1.34,1.33,2.67,2.67,4,4-.96.03-1.76-.13-2.38-.48-.5-.28-.9-.68-1.16-1.19-.33-.62-.49-1.4-.46-2.33Z"/>
      <path class="cls-74" d="M294,596l-4-4c.98-.03,1.79.13,2.42.49.5.28.88.69,1.15,1.2.31.61.46,1.39.43,2.31Z"/>
      <path class="cls-74" d="M294,504c2,2,4.01,4,6,6-3.36-.59-5.41-2.64-6-6Z"/>
      <path class="cls-74" d="M299,601c-1.66-1.66-3.33-3.34-5-5,2.19.18,3.7,1.14,4.45,2.8.3.63.48,1.37.55,2.2Z"/>
      <path class="cls-74" d="M300,510l4,4c-2.38.08-3.76-1.03-3.96-3.16-.04-.27-.05-.54-.04-.84Z"/>
      <path class="cls-74" d="M303,605c-1.33-1.33-2.66-2.67-4-4,2.68-.09,4.09,1.32,4,4Z"/>
      <path class="cls-74" d="M304,409c-17.29,17.67-34.52,35.52-52,53l4.87-6.78,47.13-46.22Z"/>
      <path class="cls-74" d="M304,514l4,4c-.97.03-1.78-.13-2.41-.5-.5-.27-.89-.68-1.15-1.19-.32-.61-.47-1.38-.44-2.31Z"/>
      <path class="cls-74" d="M308,610c-1.67-1.66-3.33-3.34-5-5,.88.07,1.66.27,2.31.6,1.59.77,2.51,2.26,2.69,4.4Z"/>
      <path class="cls-74" d="M308,518l4,4c-.97.03-1.78-.13-2.41-.5-1.09-.61-1.65-1.8-1.59-3.5Z"/>
      <path class="cls-74" d="M312,614c-1.34-1.33-2.66-2.67-4-4,2.68-.09,4.09,1.32,4,4Z"/>
      <path class="cls-74" d="M312,662v1c-.87-.28-.86-.62,0-1Z"/>
      <path class="cls-74" d="M316,618c-1.34-1.33-2.66-2.67-4-4,2.68-.09,4.09,1.32,4,4Z"/>
      <path class="cls-74" d="M312,522l5,5c-2.43,1.88-6.61-2.55-5-5Z"/>
      <path class="cls-74" d="M317,527c1.34,1.33,2.67,2.67,4,4-1.75.06-2.96-.53-3.55-1.7-.33-.61-.48-1.38-.45-2.3Z"/>
      <path class="cls-74" d="M320,622c-1.33-1.33-2.66-2.68-4-4,.98-.03,1.79.13,2.42.49,1.09.62,1.64,1.81,1.58,3.51Z"/>
      <path class="cls-74" d="M321,531l4,4c-.78.03-1.46-.08-2.02-.31-.69-.28-1.21-.74-1.54-1.38-.32-.61-.47-1.38-.44-2.31Z"/>
      <path class="cls-74" d="M324,626c-1.34-1.33-2.66-2.67-4-4,1.76-.06,2.97.53,3.56,1.7.32.61.47,1.38.44,2.3Z"/>
      <path class="cls-74" d="M325,535c1.66,1.66,3.34,3.33,5,5-.21-.03-.4-.06-.59-.07-1.21-.19-2.18-.64-2.9-1.35-.87-.84-1.38-2.04-1.51-3.58Z"/>
      <path class="cls-74" d="M324,626c3.52-.03,5.01,1.49,5,5-1.69-1.66-3.32-3.34-5-5Z"/>
      <path class="cls-74" d="M330.5,662h-18.5c.1-.77.27-1.81.89-2,.77-.24,14.87-.22,16.19,0l1.42,2Z"/>
      <polygon class="cls-74" points="312 663 332.5 663 331.37 665 313.42 665 312 663"/>
      <path class="cls-74" d="M329,631c1.16-.24,2.09-.2,2.77.11,1.19.53,1.63,1.87,1.23,3.89-1.39-1.33-2.65-2.68-4-4Z"/>
      <path class="cls-74" d="M330,540l4,4c-.97.03-1.78-.13-2.41-.5-1.09-.61-1.65-1.8-1.59-3.5Z"/>
      <path class="cls-74" d="M334,668c-1.29-1.14-1.79-2.8-1.5-5,.56,0,2.23,1.47,3.5,1.01.55,1.92-1.51,2.37-2,3.99Z"/>
      <path class="cls-74" d="M333,635c1.17-.39,2.17-.32,2.91.08,1.15.64,1.65,2.1,1.09,3.92-1.4-1.32-2.65-2.71-4-4Z"/>
      <path class="cls-74" d="M334,544c1.33,1.33,2.67,2.66,4,4-2.67.09-4.09-1.32-4-4Z"/>
      <path class="cls-74" d="M338,548l4,4c-.97.03-1.78-.13-2.41-.5-.5-.27-.89-.68-1.15-1.19-.32-.61-.47-1.38-.44-2.31Z"/>
      <path class="cls-74" d="M336.49,660.97c-1.78.18-5.39,1.03-5.99,1.03.17-1.72,1.44-2.75,3.81-3.08l-11.34-1.94c-.85-.45-1.39-1.12-1.59-2.03-91.78-.21-186.03.95-276.59,4.62-8.39-1.77-16.55-1.49-24.79-.57,8.27-4.31,12.56-.01,20.54-.97,18.45-2.23,33.48-1.61,52-1.99,47.5-.98,95.54-2.38,142.92-3.08,29.33-.44,58.71.41,88.04.04l-.5,1.99c3.5.88,14.33,1.07,15.99,4.52.98,2.03-1.54,1.37-2.5,1.46Z"/>
      <path class="cls-74" d="M342,552c1.66,1.66,3.34,3.33,5,5-.88-.07-1.66-.27-2.31-.6-1.59-.77-2.51-2.26-2.69-4.4Z"/>
      <path class="cls-74" d="M350,668l-1,3c-.62-.25-1.05-.52-1.31-.79-3.65.4-13.27.22-13.69-2.21h16Z"/>
      <path class="cls-74" d="M347,557c1.33,1.33,2.67,2.66,4,4-2.67.09-4.09-1.32-4-4Z"/>
      <path class="cls-74" d="M351,561c1.66,1.67,3.34,3.33,5,5-1.09-.09-2.01-.37-2.75-.83-.75-.47-1.32-1.13-1.7-1.96-.29-.63-.48-1.37-.55-2.21Z"/>
      <path class="cls-74" d="M356,566c1.33,1.33,2.67,2.66,4,4-2.67.08-4.09-1.32-4-4Z"/>
      <path class="cls-74" d="M360,570c1.33,1.33,2.67,2.66,4,4-2.67.08-4.09-1.32-4-4Z"/>
      <path class="cls-74" d="M366,348c-20.76,20.21-40.92,41.13-62,61,1.04-1.69,2.11-3.36,3.28-4.95,1.17-1.58,2.34-3.15,3.72-4.49,4.98-4.87,9.98-9.73,14.98-14.58,11.66-11.29,23.38-22.5,35.22-33.6.87-.82,1.83-1.53,2.84-2.2.64-.41,1.29-.8,1.96-1.18Z"/>
      <path class="cls-74" d="M368,578c-1.11.03-2-.19-2.66-.66-.38-.26-.68-.61-.9-1.03-.32-.61-.47-1.38-.44-2.31,1.32,1.33,2.68,2.66,4,4Z"/>
      <path class="cls-74" d="M372,582c-.98.03-1.78-.14-2.41-.5-1.1-.61-1.65-1.8-1.59-3.5,1.33,1.34,2.67,2.65,4,4Z"/>
      <path class="cls-74" d="M377,587c-3.51.3-5.34-1.48-5-5,1.66,1.68,3.34,3.28,5,5Z"/>
      <path class="cls-74" d="M381,591c-2.56.51-4.03-.33-4.15-2.33-.03-.49.02-1.05.15-1.67,1.31,1.35,2.68,2.61,4,4Z"/>
      <path class="cls-74" d="M394,321c-9.43,8.87-18.72,17.97-28,27,7-11.01,16.7-20.48,28-27Z"/>
      <path class="cls-74" d="M385,595c-1.57.85-3.26.06-3.96-1.29-.42-.78-.5-1.75-.04-2.71,1.38,1.44,2.47,2.03,4,4Z"/>
      <path class="cls-74" d="M337,639c.91-.5,1.8-.44,2.69.17.32.22.64.52.96.89l35.75-35.76,3.89-3.89c2.66-1.52,4.23-3.32,4.71-5.41.34.44,2.62.9,1.53,2l-45.53,45.53c-1.63.69-3.12-2.7-4-3.53Z"/>
      <path class="cls-74" d="M349,671h40l-1.67,2.83c-79.17.79-158.19,1.91-237.33,2.17,13.17-1.03,26.34-2.02,39.55-2.2,53.51-.7,107.04-1.13,160.55-1.3l-1.1-1.5Z"/>
      <path class="cls-74" d="M259,186c-1.06.53-2,.38-2.71-.17-.6-.45-1.03-1.18-1.23-1.99-.15-.59-.17-1.23-.06-1.84,2.05.67,2.79,2.81,4,4Z"/>
      <path class="cls-74" d="M264,191c-.99.09-1.85.01-2.55-.24-1.8-.6-2.67-2.23-2.45-4.76,1.71,1.68,3.32,3.29,5,5Z"/>
      <path class="cls-74" d="M255,182c.06-.76.15-1.5.38-2.2.93-2.89,14.63-15.57,18.62-17.8-6.5,6.34-12.39,13.79-19,20Z"/>
      <path class="cls-74" d="M269,196c-3.52.03-5.04-1.48-5-5,1.64,1.67,3.35,3.35,5,5Z"/>
      <path class="cls-74" d="M269,196l3,3c-1.27.23-2.17.01-2.64-.61-.43-.52-.55-1.33-.36-2.39Z"/>
      <path class="cls-74" d="M272.32,199.32c.56.56,1.13,1.12,1.68,1.68-.62.24-1.12.32-1.5.27h-.02c-.15-.02-.26-.07-.37-.14-.48-.3-.53-1.03-.11-2.13l.32.32Z"/>
      <path class="cls-74" d="M274,201c1.34,1.33,2.67,2.67,4,4-2.67.09-4.08-1.32-4-4Z"/>
      <path class="cls-74" d="M278,205c1.67,1.66,3.34,3.34,5,5-.88-.07-1.66-.27-2.31-.6-1.59-.77-2.51-2.26-2.69-4.4Z"/>
      <path class="cls-74" d="M283,210c1.34,1.33,2.67,2.67,4,4-2.67.09-4.08-1.32-4-4Z"/>
      <path class="cls-74" d="M287,214c1.67,1.66,3.34,3.34,5,5-3.02-.25-4.75-1.98-5-5Z"/>
      <path class="cls-74" d="M292,219c1.67,1.66,3.34,3.34,5,5-3.02-.25-4.75-1.98-5-5Z"/>
      <path class="cls-74" d="M297,224c1.34,1.33,2.67,2.67,4,4-.96.03-1.76-.13-2.38-.48-.5-.27-.89-.67-1.15-1.18-.34-.62-.5-1.4-.47-2.34Z"/>
      <path class="cls-74" d="M301,228c1.67,1.66,3.34,3.34,5,5-3.02-.25-4.75-1.98-5-5Z"/>
      <path class="cls-74" d="M306,233l6,6c-2.57-.44-4.38-1.75-5.35-3.85-.3-.64-.51-1.36-.65-2.15Z"/>
      <path class="cls-74" d="M312,239l4,4c-1.75.06-2.96-.53-3.55-1.69-.33-.61-.48-1.39-.45-2.31Z"/>
      <path class="cls-74" d="M316,243c1.67,1.66,3.34,3.34,5,5h-.04c-1.2-.1-2.2-.45-2.98-1.02-.61-.44-1.08-1.02-1.42-1.74-.3-.64-.49-1.39-.56-2.24Z"/>
      <path class="cls-74" d="M274,162l2.39-3.9,44.61-43.1c-15.08,16.23-31.13,31.55-47,47Z"/>
      <path class="cls-74" d="M321,248c1.67,1.66,3.34,3.34,5,5-.88-.07-1.66-.27-2.31-.6-1.59-.77-2.51-2.26-2.69-4.4Z"/>
      <path class="cls-74" d="M326,253l4,4c-2.67.09-4.09-1.32-4-4Z"/>
      <path class="cls-74" d="M330,257c1.67,1.66,3.34,3.33,5,5h-.04c-2.15-.19-3.64-1.13-4.4-2.76-.3-.64-.49-1.39-.56-2.24Z"/>
      <path class="cls-74" d="M335,262c1.66,1.66,3.34,3.34,5,5-.88-.07-1.66-.27-2.31-.6-1.59-.77-2.51-2.26-2.69-4.4Z"/>
      <path class="cls-74" d="M343,0v1c-.87-.28-.86-.62,0-1Z"/>
      <path class="cls-74" d="M340,267l4,4c-.96.03-1.75-.13-2.38-.48-1.11-.61-1.68-1.8-1.62-3.52Z"/>
      <path class="cls-74" d="M344,271c1.66,1.66,3.34,3.33,5,5-1.05-.08-1.95-.35-2.68-.8-1.37-.81-2.16-2.23-2.32-4.2Z"/>
      <path class="cls-74" d="M348,6c-2.85,1.09-5.26-2.31-5-5,2.38.97,3.45,3.44,5,5Z"/>
      <path class="cls-74" d="M349,276c.67.67,1.34,1.33,2,2-1.09.42-1.82.37-2.13-.1-.24-.38-.21-1.02.13-1.9Z"/>
      <path class="cls-74" d="M348,6c1.66,1.66,3.34,3.33,5,5-.62-.05-1.18-.16-1.69-.34h-.02c-1.96-.68-3.09-2.27-3.29-4.66Z"/>
      <path class="cls-74" d="M351,278l3,3c-.79.15-1.44.12-1.93-.09-.97-.37-1.35-1.37-1.07-2.91Z"/>
      <path class="cls-74" d="M353,11c1.33,1.33,2.67,2.66,4,4-2.67.08-4.09-1.32-4-4Z"/>
      <path class="cls-74" d="M357,15c1.32,1.33,2.68,2.67,4,4-1.75.06-2.96-.52-3.56-1.68-.32-.62-.47-1.39-.44-2.32Z"/>
      <path class="cls-74" d="M354,281l4,4h-.24c-2.51,0-3.85-1.4-3.76-4Z"/>
      <path class="cls-74" d="M361,19c.67.67,1.34,1.33,2,2-.18-.02-.35-.02-.51-.01-.68-.02-1.18-.12-1.5-.3-.59-.3-.59-.87.01-1.69Z"/>
      <path class="cls-74" d="M358,285c1.66,1.66,3.34,3.33,5,5-.87-.07-1.64-.27-2.29-.59-1.61-.77-2.53-2.26-2.71-4.41Z"/>
      <path class="cls-74" d="M367,25c-2.67.08-4.08-1.33-4-4,1.34,1.34,2.67,2.65,4,4Z"/>
      <path class="cls-74" d="M367.52,25.53c.49.48.99.97,1.48,1.47-1.02.39-1.72.37-2.06-.01-.31-.36-.31-1.04.06-1.99.22.18.38.34.49.49.01.01.02.02.03.04Z"/>
      <path class="cls-74" d="M363,290c1.66,1.66,3.34,3.33,5,5-.87-.07-1.64-.27-2.29-.59-1.61-.77-2.53-2.26-2.71-4.41Z"/>
      <path class="cls-74" d="M369,27c.67.67,1.34,1.33,2,2-.96.37-1.64.37-2,.05-.37-.34-.39-1.04,0-2.05Z"/>
      <path class="cls-74" d="M368,295c1.33,1.33,2.67,2.66,4,4-2.67.08-4.09-1.32-4-4Z"/>
      <path class="cls-74" d="M372,299c1.66,1.67,3.34,3.32,5,5-.88-.08-1.64-.27-2.29-.59-.98-.47-1.7-1.21-2.15-2.19-.3-.63-.49-1.38-.56-2.22Z"/>
      <path class="cls-74" d="M371,29c1.33,1.33,2.67,2.65,4,4-.97.03-1.78-.14-2.4-.49-1.1-.62-1.66-1.8-1.6-3.51Z"/>
      <path class="cls-74" d="M321,115c2.02-3.54,4.52-6.69,7.5-9.46l47.5-45.54c-17.99,18.64-36.14,37.23-55,55Z"/>
      <path class="cls-74" d="M377,304c1.66,1.67,3.34,3.32,5,5-3.01-.26-4.75-1.98-5-5Z"/>
      <path class="cls-74" d="M381,39c-3.7.23-6.29-2.28-6-6,2.01,2.03,4.01,3.92,6,6Z"/>
      <path class="cls-74" d="M382,309l3,3c-1.26.23-2.16.02-2.63-.6-.44-.52-.57-1.33-.37-2.4Z"/>
      <path class="cls-74" d="M385,43c-1.9.59-3.41.01-3.99-1.26-.34-.72-.37-1.66-.01-2.74,1.29,1.35,2.68,2.6,4,4Z"/>
      <path class="cls-74" d="M385,312c.77.76,1.28,2.29,2,3-1.21.43-2.09.33-2.53-.09-.04-.02-.06-.05-.07-.07-.53-.58-.38-1.65.6-2.84Z"/>
      <path class="cls-74" d="M376,60c2.24-5,5.97-9.42,11.2-13.25-.72.03-1.53-.45-2.04-1.16h0c-.5-.73-.7-1.68-.16-2.59,1.02,1.07,4.26,2.4,3.93,4.36-3.97,4.58-8.44,8.6-12.93,12.64Z"/>
      <path class="cls-74" d="M387,315c.3.29,2.67,1.83,4,3l-.2.18c-.97.8-2.16.69-2.99.08-.92-.67-1.43-1.93-.81-3.26Z"/>
      <path class="cls-74" d="M394,320c-2.51,1.41-3.34.88-3-2,.88.77,2.08,1.27,3,2Z"/>
      <path class="cls-74" d="M73,1V0c.88.28.86.62,0,1Z"/>
      <path class="cls-74" d="M73,1l135,134-1.9.93C161.74,91.9,117.39,47.87,73.02,3.83c-.18-.18-.37-.36-.55-.54l.53-2.29Z"/>
      <path class="cls-74" d="M209,135c-.3.88-.64.87-1,0,.22-.14.7.13,1,0Z"/>
      <path class="cls-74" d="M226,118c.11.71.12,1.34-.17,1.66h0c-.5.51-1,1-1.5,1.5-.66.64-1.32,1.28-1.98,1.92-2.14,2.1-4.32,4.14-6.54,6.12-2.22,1.99-4.48,3.94-6.81,5.8,4.92-6.38,11.36-11.35,17-17Z"/>
      <path class="cls-74" d="M343,1l-5.67,7.35c-24.17,25.28-48.82,50.04-73.97,74.29-1.06,1.04-2.12,2.06-3.19,3.07,0,.02-.02.03-.03.04-11.28,10.85-22.66,21.6-34.14,32.25,38.97-39.01,77.3-78.72,117-117Z"/>
      <path class="cls-74" d="M343,0v1c-.87-.28-.86-.62,0-1Z"/>
      <path class="cls-30" d="M394,320v1c-9.43,8.87-18.72,17.97-28,27l-1.51.76c-.15.14-.3.28-.45.42-12.66,11.92-25.35,23.85-38.06,35.8-40.58,38.15-81.37,76.46-122.39,114.95-32.41,30.4-64.96,60.91-97.65,91.53-14.52,13.58-29.06,27.2-43.63,40.83-.06.05-.11.11-.17.16l-2.14-.45c-.68-.67-1.33-1.34-2-2l-.66-2.12c.1-.09.2-.19.3-.28,110.04-103.1,220.1-206.22,330.17-309.34.3-.29.61-.58.91-.86l2.28.6c.88.77,2.08,1.27,3,2Z"/>
      <path class="cls-60" d="M150,676v1h-60c-.87-.28-.86-.62,0-1,19.94-2.73,40.07-2.69,60,0Z"/>
      <path class="cls-60" d="M58,676c.87.28.86.62,0,1H7c-.87-.28-.86-.62,0-1,1.4-.48,2.82-.93,4.26-1.24,8.08-1.76,34.59-1.92,42.5-.09,1.44.33,2.85.81,4.25,1.33Z"/>
      <path class="cls-24" d="M90,676v1h-32v-1c10.64-1.96,21.36-1.97,32,0Z"/>
      <path class="cls-9" d="M7,676v1H0v-3h1c.44.37.97.63,1.62.79.59.14,1.27.19,2.03.14h.04c.53-.03,1.11-.11,1.73-.23l.08.18.5,1.12Z"/>
      <path class="cls-8" d="M208.27,137.25c-15.3,13.97-29.92,28.7-43.87,44.18l-2.4-.43L28.08,47.36l.86-1.89L73,1l135,134,.27,2.25Z"/>
      <path class="cls-66" d="M389,671l-1.67,2.83c-79.17.79-158.19,1.91-237.33,2.17-19.98.07-40.01.01-60,0-10.65,0-21.34.01-32,0-16.95-.01-34.06.44-51,0-2.8-.07-6.87,1.15-6-2l9-1.01-2.99-1.98c1.91-1.51,9.24-1.58,10-2.02.18-.1-1.54-2.41.97-3.48,2.39-1.02,5.31.38,7.02-1.51-1.82-.31-3.69-.52-5.61-.61-.99-.05-2-.06-3.02-.05,1-.52,1.41-1.35,1.63-2.34,4.45-1.15,9.53-1.09,14,0,.81-.1,1.6-.21,2.39-.3.56-.07,1.11-.13,1.66-.19,1.35-.16,2.65-.29,3.9-.41.35-.04.7-.07,1.05-.1-2.01-.05-4.03-.08-6.05-.09-4.88-.04-9.8.03-14.74.19l-.12-.63h0s-.09-.47-.09-.47c8.27-4.31,12.56-.01,20.54-.97,18.45-2.23,33.48-1.61,52-1.99,47.5-.98,95.54-2.38,142.92-3.08,29.33-.44,58.71.41,88.04.04l-.5,1.99c3.5.88,14.33,1.07,15.99,4.52.98,2.03-1.54,1.37-2.5,1.46-1.78.18-5.39,1.03-5.99,1.03h-18.5v1h20.5c.56,0,2.23,1.47,3.5,1.01.55,1.92-1.51,2.37-2,3.99h16l-1,3h40Z"/>
      <path class="cls-15" d="M372.67,301.12s-.07.07-.11.1c-110.41,103.45-220.83,206.9-331.27,310.37h0s-2.28-.59-2.28-.59c-1.31-1.33-2.67-2.66-4-4l-.66-2.12c.15-.14.3-.28.45-.42,110.29-103.34,220.6-206.68,330.92-310.05h0s2.28.59,2.28.59c1.33,1.33,2.67,2.66,4,4l.67,2.12Z"/>
      <path class="cls-64" d="M381.67,41.12c-.22.21-.44.41-.66.62-110.22,102.93-220.46,205.88-330.71,308.85t-.02.02l-2.28-.61c-1.65-1.67-3.34-3.32-5-5l-.67-2.11c.08-.07.15-.14.23-.21,110-103.38,220.02-206.77,330.04-310.17.04-.03.08-.07.12-.11l2.28.6c2.01,2.03,4.01,3.92,6,6l.67,2.12Z"/>
      <path class="cls-3" d="M368,295L35,607c-1.66-1.68-3.33-3.28-5-5l-.66-2.12c.18-.17.37-.34.55-.51,110.25-103.31,220.54-206.63,330.82-309.96h0s2.28.59,2.28.59c1.66,1.66,3.34,3.33,5,5Z"/>
      <path class="cls-83" d="M357.67,17.11c-.08.07-.15.14-.23.21C248.88,119.36,136.49,224.97,27.89,327.03c-.2.19-.41.38-.61.57l-2.28-.6c-1.26-1.34-4.85-2.47-3.56-4.99,8.49-5.99,57.25-60.55,61.56-61.01l1.97-.68c6.76-6.54,13.53-13.07,20.31-19.59,4.7-4.53,9.4-9.05,14.1-13.57C194.38,155.1,270.04,83.85,346.35,13.41c1.66-1.83,3.31-2.75,4.94-2.75h.02c.56,0,1.13.11,1.69.34,1.33,1.33,2.67,2.66,4,4l.67,2.11Z"/>
      <path class="cls-5" d="M382.67,311.12c-.1.09-.2.19-.3.28-110.33,103.27-220.63,206.62-330.9,310.02-.06.06-.13.12-.19.18l-2.28-.6c-1.68-1.67-3.33-3.32-5-5l-.66-2.12s.07-.07.11-.1c110.4-103.45,220.83-206.9,331.26-310.37h0s2.28.59,2.28.59c1.66,1.67,3.34,3.32,5,5l.67,2.12Z"/>
      <path class="cls-25" d="M385.67,45.11c-.17.16-.34.32-.51.47h0c-109.88,103.28-219.77,206.55-329.69,309.84-.06.06-.13.12-.19.18l-2.28-.6c-1.65-1.67-3.34-3.33-5-5L381,39c1.29,1.35,2.68,2.6,4,4l.67,2.11Z"/>
      <path class="cls-82" d="M375,33L43,345c-1.32-1.33-2.67-2.66-4-4l-.67-2.11c.1-.1.21-.19.31-.29C147.35,236.5,260.05,130.91,369,29.05c.19-.18.39-.36.58-.54l1.42.49c1.33,1.33,2.67,2.65,4,4Z"/>
      <path class="cls-36" d="M377,304L44,616c-1.66-1.67-3.33-3.32-5-5l333-312c1.66,1.67,3.34,3.32,5,5Z"/>
      <path class="cls-31" d="M363,290L30,602c-.95-.98-5.98-4.7-5.98-5.5,6.14-4.79,12.58-14.68,18.98-18.5l4.74-3.05c46.98-43.39,93.51-86.65,139.59-129.78,57.25-53.59,113.81-106.98,169.67-160.17h1c1.66,1.66,3.34,3.33,5,5Z"/>
      <path class="cls-50" d="M367.27,26.69s-.09.08-.13.12h-.01c-.06.07-.13.13-.19.18-4.87,4.54-9.74,9.09-14.62,13.65-73.16,68.36-147.9,138.18-221.93,207.27-.72.67-1.44,1.34-2.15,2.01-30.93,28.86-61.73,57.59-92.23,86.03-.19.18-.39.36-.58.54l-1.43-.49c-.99-1.01-1.99-1.97-3-3l.25-2.34s.02-.02.03-.03c8.66-8.57,17.47-17.18,26.4-25.81l.03-.03c36.95-35.71,75.85-71.78,113.86-106.96,1.89-1.74,3.78-3.49,5.66-5.23,2.67-2.47,5.68-4.59,8.77-6.6,1.4-1.65,3-3.13,5-4,.37-1.57,1.26-3.19,2.44-4.67,1.05-1.31,2.33-2.52,3.69-3.46,1.27-.88,2.6-1.54,3.87-1.87l5-4c.28-1.49,1.13-3.09,2.31-4.6,1.29-1.66,2.98-3.22,4.7-4.4,1.36-.94,2.75-1.65,3.99-2l5-4c.28-1.5,1.16-3.11,2.36-4.63,1.28-1.63,2.93-3.15,4.62-4.33,1.37-.95,2.77-1.67,4.02-2.04l5-4c.18-1.4.98-2.95,2.12-4.39,1.12-1.41,2.54-2.73,4.01-3.75,1.33-.92,2.68-1.59,3.87-1.86l5-4c.3-1.54,1.22-3.2,2.48-4.75,1.22-1.53,2.77-2.96,4.37-4.09,1.41-1,2.86-1.77,4.15-2.16l5-4c.3-1.53,1.21-3.16,2.45-4.7,1.23-1.53,2.79-2.97,4.39-4.1,1.42-1.02,2.87-1.8,4.16-2.2l5-4c.23-1.45,1.06-3,2.23-4.45,1.08-1.34,2.43-2.59,3.83-3.58h.01c1.33-.94,2.7-1.64,3.93-1.97.65-.74,1.32-1.46,2.03-2.15.15-.14.3-.28.45-.42,1.06-.97,2.22-1.83,3.52-2.43.42-1.61,1.38-3.28,2.64-4.78.97-1.15,2.1-2.2,3.3-3.08,1.32-.97,2.72-1.73,4.06-2.14l5-4c.31-1.47,1.18-3.04,2.36-4.53,1.3-1.63,2.96-3.17,4.68-4.37,1.35-.94,2.73-1.68,3.96-2.1l5-4c.31-1.42,1.13-2.92,2.26-4.36,1.34-1.73,3.12-3.37,4.94-4.62t.01-.01c1.29-.89,2.61-1.59,3.79-2.01l5-4c.12-1.14.74-2.45,1.67-3.74,1.36-1.91,3.37-3.77,5.32-4.97,1.06-.65,2.1-1.11,3.01-1.29l5-4c1.34,1.34,2.67,2.65,4,4,.22.18.38.34.49.49.01.01.02.02.03.04.3.42.19.75-.25,1.16Z"/>
      <path class="cls-35" d="M361.61,20.11c-.21.19-.41.39-.62.58-2,1.86-4,3.73-6,5.6-1.77,1.65-3.55,3.3-5.32,4.97-3.49,3.24-6.98,6.49-10.46,9.75t-.01.01c-1.65,1.53-3.3,3.07-4.94,4.62-3.74,3.48-7.48,6.97-11.22,10.46-1.56,1.46-3.12,2.91-4.68,4.37-3.81,3.55-7.62,7.11-11.42,10.67-1.1,1.02-2.2,2.05-3.3,3.08-4.19,3.91-8.38,7.83-12.57,11.74h-.01c-1.28,1.2-2.56,2.4-3.83,3.59-3.8,3.55-7.6,7.1-11.39,10.65-1.47,1.37-2.93,2.73-4.39,4.1-3.87,3.62-7.74,7.23-11.6,10.86-1.46,1.35-2.92,2.72-4.37,4.09-3.79,3.53-7.57,7.07-11.35,10.61-1.34,1.25-2.68,2.5-4.01,3.75-3.72,3.48-7.43,6.95-11.14,10.43-1.54,1.44-3.08,2.88-4.62,4.33-3.79,3.54-7.57,7.08-11.35,10.63-1.57,1.46-3.14,2.93-4.7,4.4-3.73,3.49-7.46,6.98-11.18,10.47-1.23,1.15-2.46,2.31-3.69,3.46-7.29,6.83-14.58,13.66-21.87,20.5-37.97,35.6-75.92,71.26-113.86,106.96l-.03.03c-8.93,8.4-17.85,16.8-26.78,25.2-.21.2-.41.4-.62.59l-2.28-.61c-.96-1.01-2-1.94-3-3L357,15c1.32,1.33,2.68,2.67,4,4l.61,1.11Z"/>
      <path class="cls-46" d="M388.93,47.36c-3.97,4.58-8.44,8.6-12.93,12.64-105.04,98.71-209.69,196.82-313.96,294.33l-6.04,3.67c-.99-1-2-1.99-3-3L385,43c1.02,1.07,4.26,2.4,3.93,4.36Z"/>
      <path class="cls-44" d="M385,312l-.08,2.36s-.06.08-.1.12c-.1.13-.22.28-.35.43-1.5,1.81-4.37,4.75-6.76,6.22-.01.01-.02.02-.03.02-1.04.63-1.98.98-2.68.85-.3.14-.59.29-.87.46-.72.42-1.4.91-2.03,1.45-.37.29-.72.62-1.07.95-.23.22-.46.45-.69.69-.23.24-.46.48-.68.72-.23.24-.44.49-.66.73-.25,1.32-.77,2.58-1.48,3.72-1.09,1.73-2.64,3.19-4.43,4.16-.97.53-2.01.91-3.09,1.12-2.08,1.09-3.81,2.65-5.42,4.31-.53.55-1.06,1.12-1.58,1.69-.09,1.18-.56,2.41-1.27,3.58-1.15,1.85-2.92,3.52-4.8,4.51-.97.51-1.97.84-2.93.91-1.31.62-2.46,1.47-3.52,2.43-.15.14-.3.28-.45.42-.71.68-1.38,1.41-2.03,2.15-.17,1.33-.75,2.7-1.6,3.99-1.27,1.96-3.15,3.73-5.15,4.85-1.08.6-2.18,1.01-3.25,1.16-.9.42-1.73.95-2.5,1.55-.51.4-1,.84-1.47,1.3-.24.23-.47.46-.7.7-.46.47-.9.96-1.33,1.45-.17,1.36-.77,2.77-1.64,4.09-1.25,1.9-3.07,3.61-5.01,4.71t-.02.01c-1.1.62-2.24,1.04-3.33,1.19-.9.42-1.73.95-2.5,1.55-1.28,1.01-2.42,2.23-3.5,3.45-.12,1.37-.68,2.76-1.52,4.02-1.03,1.56-2.48,2.93-4.08,3.84-1.09.62-2.26,1.03-3.4,1.14-1.31.62-2.46,1.47-3.52,2.43-.15.14-.3.28-.45.42-.71.68-1.38,1.41-2.03,2.15-.17,1.46-.82,2.98-1.78,4.37-1.18,1.71-2.81,3.24-4.56,4.28-1.2.72-2.45,1.2-3.66,1.35-.9.42-1.73.95-2.5,1.55-.51.4-1,.84-1.47,1.3-.24.23-.47.46-.7.7-.46.47-.9.96-1.33,1.45-.17,1.48-.83,3.02-1.8,4.43-1.16,1.67-2.75,3.17-4.47,4.19-1.22.74-2.5,1.23-3.73,1.38-.9.42-1.73.95-2.5,1.55-.51.4-1,.84-1.47,1.3-.24.23-.47.46-.7.7-.46.47-.9.96-1.33,1.45-.29,1.72-1.01,3.33-2.05,4.7-.78,1.04-1.75,1.95-2.84,2.66-1.23.82-2.63,1.39-4.11,1.64-2.08,1.09-3.81,2.65-5.42,4.31-.53.55-1.06,1.12-1.58,1.69-.06,1.47-.7,3-1.67,4.37-.94,1.35-2.21,2.54-3.59,3.38-1.21.74-2.51,1.2-3.74,1.25-1.31.62-2.46,1.47-3.52,2.43-.15.14-.3.28-.45.42-.71.68-1.38,1.41-2.03,2.15-.16,1.61-.9,3.27-1.97,4.76-1.06,1.46-2.46,2.77-3.96,3.71-1.32.83-2.72,1.39-4.07,1.53-.9.42-1.73.95-2.5,1.55-.51.4-1,.84-1.47,1.3-.24.23-.47.46-.7.7-.46.47-.9.96-1.33,1.45-.32,1.91-1.12,3.64-2.28,5.07-.62.8-1.37,1.5-2.21,2.07-1.31.94-2.85,1.59-4.51,1.86-2.08,1.09-3.81,2.65-5.42,4.31-.53.55-1.06,1.12-1.58,1.69-.05,1.56-.72,3.17-1.75,4.59-.88,1.22-2.02,2.3-3.28,3.08-1.27.8-2.65,1.29-3.97,1.33-1.31.62-2.46,1.47-3.52,2.43-.15.14-.3.28-.45.42-.71.68-1.38,1.41-2.03,2.15-.15,1.7-.92,3.43-2.07,4.97-.99,1.35-2.27,2.56-3.67,3.45h-.01c-1.36.88-2.83,1.45-4.25,1.58-1.5.7-2.79,1.71-3.97,2.85-.24.23-.47.46-.7.7-.46.47-.9.96-1.33,1.45-2.16,2.72-4.35,5.41-6.65,8.01-2.3,2.59-4.61,5.15-7.11,7.52-27.51,26-55.22,51.88-82.97,77.61-5.08,4.71-10.66,8.82-16.27,12.86-1.01-1-1.99-2.01-3-3l333-312,3,3Z"/>
      <path class="cls-29" d="M391,318l-.2.18L58,630c-1.01-1-1.99-2.01-3-3l-.67-2.11c.1-.1.21-.19.31-.29,40.21-37.71,80.42-75.42,120.61-113.17h.01c1.22-1.15,2.45-2.3,3.67-3.46,4.01-3.75,8.03-7.52,12.04-11.3,1.1-1.02,2.19-2.05,3.28-3.08,4.42-4.14,8.84-8.29,13.26-12.45.74-.68,1.47-1.38,2.21-2.07,4.12-3.86,8.23-7.73,12.35-11.6,1.32-1.24,2.64-2.48,3.96-3.71,3.9-3.67,7.81-7.34,11.71-11.01,1.2-1.12,2.39-2.25,3.59-3.38,4.26-4,8.52-8,12.78-12.01.95-.88,1.89-1.77,2.84-2.66,3.93-3.69,7.85-7.38,11.78-11.08,1.49-1.39,2.98-2.79,4.47-4.19,3.82-3.59,7.64-7.18,11.46-10.78,1.52-1.42,3.04-2.85,4.56-4.28,3.73-3.5,7.45-7.01,11.18-10.51,1.36-1.28,2.72-2.56,4.08-3.84,3.61-3.4,7.23-6.8,10.85-10.21t.02-.01c1.67-1.57,3.34-3.14,5.01-4.71,3.63-3.42,7.26-6.83,10.89-10.25,1.72-1.61,3.44-3.23,5.15-4.85,3.51-3.29,7.02-6.59,10.53-9.9,1.6-1.5,3.2-3.01,4.8-4.51,3.79-3.57,7.58-7.13,11.36-10.7,1.48-1.38,2.96-2.77,4.43-4.16,3.39-3.19,6.77-6.37,10.16-9.57.01,0,.02-.01.03-.02,2.23-2.1,4.46-4.19,6.69-6.29.13-.13.26-.25.39-.37h.03s2.18.53,2.18.53c.3.29,2.67,1.83,4,3Z"/>
      <path class="cls-45" d="M353,11c-1.91,1.56-4.16,2.85-6.01,4.49-89.3,79.22-172.73,165.62-261.44,245.56-2.88,1.96-2.38-.07-2.55-.05,26.36-26.6,52.43-53.61,79-80,10.25-10.18,36.46-39.72,46-46,.22-.14.7.13,1,0,2.33-1.86,4.59-3.81,6.81-5.8,2.22-2,4.39-4.05,6.54-6.12.66-.64,1.32-1.28,1.98-1.92.5-.5,1-.99,1.5-1.49.26-.26.52-.51.78-.77l1.39.1c1.38-3.78,5.21-7.68,9-9l5-4c.83-4.24,6.74-10.19,11-11l4-3c.3-2.03,1.49-4.26,3.14-6.25.01-.01.02-.02.03-.04.94-1.12,2.03-2.18,3.19-3.07,1.82-1.39,3.8-2.38,5.64-2.64l4-3c2.67-3.79,5.39-7.6,8.75-10.82,18.2-17.43,36.62-34.78,55.06-51.96,3.4-3.16,7.29-5.73,11.19-8.22,1.66,1.66,3.34,3.33,5,5Z"/>
      <path class="cls-47" d="M358,285h-1c-56.27,53.72-112.83,107.11-169.67,160.17-40.65,37.94-81.45,75.72-122.39,113.33-.07-.07-.13-.13-.18-.2-.59-.71-.47-1.49.24-2.3,30.75-31.9,62.48-62.88,94-94l.34-2.91.03-.24c14.19-12.49,27.74-25.6,40.65-39.33l2.98-.52c1.3-1.21,2.6-2.42,3.9-3.63,47.48-44.14,95.62-88.97,144.43-134.49l.74.03,1.93.09,4,4Z"/>
      <path class="cls-66" d="M217.63,519.59c-.07.13-.28.27-.63.41-1.48,32.27-4.48,64.82-13.01,96-3.09,2.4-7.51-25.81-7.82-27.67-3.51-21.22-5.21-42.83-6.17-64.33,3.6-6.37,8.63-11.41,15-15,1.32-1.1,2.7-1.17,3.61-.64.26.15.48.35.66.59.52.74.55,1.86-.27,3.05,1.83-.75,3.42-.13,4.04,1.17.37.76.41,1.75-.04,2.83l.21-.21c1.99-1.69,5.24.78,3.79,3.21.54.19.75.39.63.59Z"/>
      <path class="cls-56" d="M371,29L39,341c-.99-1-1.99-1.98-3-3l-.68-1.19c.26-.25.53-.49.79-.74,30.45-28.5,61.22-57.26,92.13-86.15.71-.67,1.43-1.34,2.15-2.01,73.97-69.13,148.73-138.93,221.93-207.27,4.88-4.56,9.75-9.11,14.62-13.65.06-.05.13-.11.19-.17h.01c.55-.52,1.12-.43,1.86.18.67.67,1.34,1.33,2,2Z"/>
      <path class="cls-17" d="M252,462c.5.62,1.14,1.67.76,2.07-.16.17-.33.35-.5.53-12.36,13.22-27.57,29.1-40.95,40.93-.89,1.29-1.79,2.23-2.7,2.83-.8.53-1.6.8-2.41.81-.39,0-.8-.05-1.2-.17l-15,15c-1.97,1.98-5.02,4.03-7,6-14.3,13.98-28.68,27.88-43.16,41.7-23.47,22.39-47.17,44.56-71.11,66.51-.16.14-.31.29-.47.43l-2.26-.64c-1.06-1.01-1.98-1.99-3-3l-1.01-1.81c.21-.2.43-.41.64-.61,14.22-13.58,28.68-27.31,43.31-41.12,32.02-30.26,64.83-60.95,97.65-91.53,23.93-22.29,47.87-44.52,71.53-66.49,9.25-8.58,19.06-16.53,28.88-24.44-17.29,17.67-34.52,35.52-52,53Z"/>
      <path class="cls-56" d="M369,27L36,338c-.65-.67-1.33-1.32-2-2L367,25c.16.16.32.33.49.49.01.01.02.02.03.04.49.48.99.97,1.48,1.47Z"/>
      <path class="cls-40" d="M366,348c-20.76,20.21-40.92,41.13-62,61-77.79,73.37-157,146.92-236.01,219.49-1.9,1.75-4.58,3.79-4.99,6.51-1-.99-2-2.02-3-3l283.99-266.51c6.52-5.13,12.2-11.1,18.51-16.49.82-.71,2.6-3.41,3.5-1Z"/>
      <path class="cls-84" d="M387,315L55,627c-1.01-1-1.99-2.01-3-3,37.07-35.88,75.23-70.82,113-106,.43-.49.87-.98,1.33-1.45.23-.24.46-.47.7-.7,1.18-1.14,2.47-2.15,3.97-2.85,3.38-3.17,6.6-6.75,10-10,.65-.74,1.32-1.47,2.03-2.15.15-.14.3-.28.45-.42,1.06-.97,2.21-1.83,3.52-2.43,3.06-2.89,5.86-6.08,9-9,.52-.57,1.05-1.14,1.58-1.69,1.61-1.66,3.34-3.22,5.42-4.31,3.03-2.96,5.92-6.04,9-9,.43-.49.87-.98,1.33-1.45.23-.24.46-.47.7-.7.47-.46.96-.9,1.47-1.3.77-.6,1.6-1.13,2.5-1.55,3.38-3.17,6.6-6.75,10-10,.65-.74,1.32-1.47,2.03-2.15.15-.14.3-.28.45-.42,1.06-.97,2.21-1.83,3.52-2.43,3.06-2.89,5.86-6.08,9-9,.52-.57,1.05-1.14,1.58-1.69,1.61-1.66,3.34-3.22,5.42-4.31,3.03-2.96,5.92-6.04,9-9,.43-.49.87-.98,1.33-1.45.23-.24.46-.47.7-.7.47-.46.96-.9,1.47-1.3.77-.6,1.6-1.13,2.5-1.55,3.38-3.17,6.61-6.75,10-10,.43-.49.87-.98,1.33-1.45.23-.24.46-.47.7-.7.47-.46.96-.9,1.47-1.3.77-.6,1.6-1.13,2.5-1.55,3.38-3.17,6.6-6.75,10-10,.65-.74,1.32-1.47,2.03-2.15.15-.14.3-.28.45-.42,1.06-.97,2.21-1.83,3.52-2.43,3.04-2.88,5.92-6.07,9-9,1.08-1.22,2.22-2.44,3.5-3.45.77-.6,1.6-1.13,2.5-1.55,3.38-3.17,6.61-6.75,10-10,.43-.49.87-.98,1.33-1.45.23-.24.46-.47.7-.7.47-.46.96-.9,1.47-1.3.77-.6,1.6-1.13,2.5-1.55,3.38-3.17,6.6-6.75,10-10,.65-.74,1.32-1.47,2.03-2.15.15-.14.3-.28.45-.42,1.06-.97,2.21-1.83,3.52-2.43,3.06-2.89,5.86-6.08,9-9,.52-.57,1.05-1.14,1.58-1.69,1.61-1.66,3.34-3.22,5.42-4.31,3.03-2.95,5.95-6.03,9-9,.22-.24.43-.49.66-.73.22-.24.45-.48.68-.72.23-.24.46-.47.69-.69.35-.33.7-.66,1.07-.95.64-.55,1.31-1.04,2.03-1.45.28-.17.57-.32.87-.46,3.24-3.12,6-7.53,10-10,.77.76,1.28,2.29,2,3Z"/>
      <path class="cls-33" d="M363,21l-5,4c-3.9,3.03-6.72,6.39-10,10l-5,4c-3.86,3.66-7.41,7.03-11,11l-5,4c-3.86,3.66-7.41,7.03-11,11l-5,4c-3.44,3.26-6.61,6.77-10,10-1.3.62-2.46,1.47-3.52,2.43-.15.14-.3.28-.45.42-.71.69-1.38,1.41-2.03,2.15-3.48,3.36-6.72,6.38-10,10l-5,4c-3.86,3.66-7.41,7.03-11,11l-5,4c-3.86,3.66-7.41,7.03-11,11l-5,4c-3.52,3.34-6.72,6.38-10,10l-5,4c-3.86,3.66-7.41,7.03-11,11l-5,4c-3.86,3.66-7.41,7.03-11,11l-5,4c-3.45,3.26-6.61,6.77-10,10-2,.87-3.6,2.35-5,4-47.03,45.47-95.44,89.53-143.01,134.49-4.17,3.94-8.3,8.1-11.99,12.51-.98-1.01-1.99-1.95-3-3L361,19c.67.67,1.34,1.33,2,2Z"/>
      <path class="cls-80" d="M376,60c-17.99,18.64-36.14,37.23-55,55l-37.01,35.66-2.99,1.34c-2.83,1.88-5.39,4.07-7.79,6.44-.02.01-.03.02-.04.04-1.46,1.42-2.84,2.9-4.2,4.43-.33.36-.65.72-.97,1.09,1.3,1.68-.24,3.21-2,2-1.19.86-2.34,1.75-3.47,2.67-2.83,2.3-5.49,4.78-7.95,7.43-.89.94-1.75,1.91-2.58,2.9,1.63,2.32.42,3.42-2,2-1.16.86-2.3,1.75-3.41,2.67-2.53,2.08-4.92,4.31-7.17,6.68-.83.86-1.63,1.75-2.42,2.65.7,2.68-.31,3.69-3,3-1.19.87-2.35,1.76-3.48,2.69-2.45,2-4.76,4.15-6.92,6.43-.89.93-1.76,1.9-2.6,2.88.93,2.46.36,3.17-2,2-1.19.87-2.35,1.77-3.48,2.69-2.82,2.3-5.47,4.77-7.92,7.41-.9.95-1.76,1.91-2.6,2.9,1.62,2.18.27,3.42-2,2-1.15.86-2.27,1.74-3.37,2.64-2.7,2.22-5.25,4.58-7.65,7.1-1.03,1.06-2.02,2.15-2.98,3.26,1.06,2.53.53,3.06-2,2-1.21.84-2.41,1.72-3.58,2.62-1.77,1.35-3.47,2.79-5.05,4.34-.27.26-.53.52-.79.79-1.3,1.33-2.5,2.74-3.58,4.25,1.03,2.57.57,3.06-2,2-3.95,2.72-7.68,5.78-10.93,9.3-1.09,1.18-2.12,2.41-3.07,3.7,1.28,2.53.53,3.32-2,2-.66.45-1.31.91-1.96,1.39-1.29.94-2.55,1.93-3.77,2.96-1.53,1.28-2.99,2.64-4.38,4.08-1.04,1.07-2.03,2.2-2.97,3.37-.3.39-.61.79-.92,1.2,1.29,2.53.53,3.32-2,2-1.21.84-2.42,1.7-3.59,2.6-.86.66-1.7,1.34-2.52,2.07-.87.73-1.7,1.5-2.52,2.3-1.59,1.55-3.06,3.22-4.37,5.03,1.29,2.6-.44,4.5-3,3-1.21.84-2.42,1.7-3.59,2.6-2.06,1.58-4.03,3.28-5.83,5.15-.78.79-1.52,1.62-2.22,2.48-.47.58-.92,1.17-1.36,1.77,1.28,2.47.47,3.3-2,2-.94.65-1.87,1.31-2.78,2.01-1,.74-1.99,1.53-2.95,2.34-1.53,1.29-2.99,2.65-4.38,4.08-1.04,1.07-2.03,2.2-2.97,3.37-.3.39-.61.79-.92,1.2,1.24,2.32.3,3.26-2,2-1.21.84-2.42,1.7-3.59,2.6-.86.66-1.7,1.34-2.52,2.07-.87.73-1.7,1.5-2.52,2.3-1.59,1.55-3.06,3.22-4.37,5.03,1.21,2.2-.83,4.35-3,3-.46.31-.92.63-1.37.95-.9.64-1.79,1.31-2.66,2-.44.34-.87.69-1.3,1.05-1.13.95-2.23,1.94-3.29,2.98-.26.26-.52.52-.78.78t-.01.01c-.77.8-1.51,1.62-2.22,2.47-.47.58-.93,1.16-1.37,1.76,1.05,1.82-.19,3.05-2,2-.85.68-1.69,1.32-2.52,1.93-.5.37-.99.73-1.48,1.07-.66-.67-1.33-1.33-2-2,13.71-12.42,27.51-24.85,41.02-37.49,92.83-86.83,184.79-175.66,278.98-260.51Z"/>
      <path class="cls-48" d="M357,285c-2.13,4.62-7.23,8.95-10.98,12.51-98.34,93.35-199.04,184.25-296.97,278.03-1.37,1.94-4.69,1.65-6.05,2.46,2.8-2.91,20.11-21.8,22-22,.17-.02-.33,2.01,2.55.05l289.45-271.05Z"/>
      <path class="cls-67" d="M255,182c.15.71.17,1.33.06,1.84-.32,1.7-1.94,2.21-4.06,1.16-29.27,28.05-58.56,55.81-87.84,83.28-8.17,7.67-16.34,15.32-24.52,22.93-15.57,14.53-31.14,28.97-46.72,43.32-9.83,9.07-19.66,18.09-29.49,27.09l-.39.36c-.18.16-.35.32-.53.48l-1.51-.46c-.33-.33-.66-.67-1-1-.11-.33-.12-.66-.05-.98.07-.38.27-.75.53-1.09.63-.82,1.65-1.5,2.52-1.93.76-.82,1.14-1.23,2-2,.44-.6.9-1.18,1.37-1.76.71-.85,1.45-1.67,2.22-2.47t.01-.01c.26-.26.52-.52.78-.78,1.06-1.04,2.16-2.03,3.29-2.98.43-.36.86-.71,1.3-1.05.87-.69,1.76-1.36,2.66-2,.45-.32.91-.64,1.37-.95.96-.89,1.84-1.93,3-3,1.33-1.8,2.8-3.47,4.37-5.03.82-.8,1.65-1.57,2.52-2.3.82-.73,1.66-1.41,2.52-2.07,1.17-.91,2.37-1.77,3.59-2.6.67-.62,1.3-1.34,2-2,.31-.41.62-.81.92-1.2.47-.58.96-1.16,1.45-1.72.5-.56,1-1.11,1.52-1.65,1.39-1.43,2.85-2.79,4.38-4.08.96-.81,1.95-1.59,2.95-2.34.91-.7,1.84-1.36,2.78-2.01.67-.62,1.29-1.34,2-2,.44-.6.89-1.19,1.36-1.77.71-.86,1.45-1.69,2.22-2.48,1.8-1.87,3.77-3.57,5.83-5.15,1.17-.91,2.37-1.77,3.59-2.6.96-.89,1.84-1.93,3-3,1.33-1.8,2.8-3.47,4.37-5.03.82-.8,1.65-1.57,2.52-2.3.82-.73,1.66-1.41,2.52-2.07,1.17-.91,2.37-1.77,3.59-2.6.67-.62,1.3-1.34,2-2,.31-.41.62-.81.92-1.2.47-.58.96-1.16,1.45-1.72.5-.56,1-1.11,1.52-1.65,1.39-1.44,2.85-2.8,4.38-4.08,1.22-1.03,2.48-2.02,3.77-2.96.65-.48,1.3-.94,1.96-1.39.67-.63,1.3-1.34,2-2,.97-1.29,1.99-2.52,3.07-3.7,3.25-3.52,6.98-6.58,10.93-9.3.67-.63,1.3-1.34,2-2,1.09-1.51,2.3-2.92,3.58-4.25.26-.27.52-.53.79-.79,1.58-1.55,3.28-2.99,5.05-4.34,1.17-.91,2.37-1.78,3.58-2.62.66-.64,1.35-1.34,2-2,.88-1.51,1.87-2.6,2.98-3.26.63-.38,1.31-.63,2.02-.74l4-3c.18-1.2.73-2.33,1.63-3.36.82-.95,1.95-1.83,3.37-2.64.44-.52,1.32-1.23,2-2,.02-.02.04-.07.06-.13.76-1.5,1.61-2.43,2.54-2.77.44-.16.91-.2,1.4-.1l5-4c.05-1.14.56-2.24,1.52-3.31.82-.92,1.99-1.82,3.48-2.69.51-.59,1.3-1.2,2-2,.02-.02.04-.07.06-.13.74-1.49,1.58-2.4,2.54-2.75.44-.17.91-.2,1.4-.12l4-3c.14-1.19.64-2.29,1.52-3.31.82-.97,1.99-1.87,3.48-2.69,1-.99,2.01-2.04,3-3,.73-1.32,1.54-2.2,2.42-2.65.5-.26,1.03-.38,1.58-.35l4-3c.17-1.19.69-2.3,1.59-3.33.83-.96,1.96-1.85,3.41-2.67.44-.52,1.32-1.23,2-2,.02-.02.04-.07.06-.13.76-1.49,1.59-2.41,2.52-2.77.45-.16.92-.2,1.42-.1l5-4c.13-1.19.65-2.31,1.53-3.33.83-.96,1.99-1.86,3.47-2.67.58-.53,1.79-1.86,2-2,.32-.56.65-.92.97-1.09.34-.2.69-.16,1.03.09,1.85-1.7,3.18-2.04,4-1-6.5,6.34-12.39,13.79-19,20Z"/>
      <path class="cls-42" d="M183,530c-37.43,37.39-74.32,75.37-112,112.54h-.99c-1.66-1.1-2.76-3.35-4.01-4.54l117-108Z"/>
      <path class="cls-77" d="M115,325l.67,2.1c-15.45,14.16-30.89,28.33-46.36,42.5-.02.02-.05.04-.07.06l-2.24-.66c-1.32-1.33-2.67-2.67-4-4,.5-1.81,1.7-3.42,3.62-4.82,27.13-25.24,56.42-52.39,84.55-78.4,4.66-4.31,9.31-8.56,14.83-11.78l-51.08,51.48-.75,1.86c.17.61.49,1.14.83,1.66Z"/>
      <path class="cls-54" d="M63,365c-.33-.33-.66-.67-1-1,.87-.43,1.17-.05,1,1Z"/>
      <path class="cls-54" d="M218,218c-26.14,24.45-52.78,48.78-79.36,73.21-15.57,14.53-31.14,28.97-46.72,43.32-5.67,5.31-11.31,10.63-16.93,15.96-4.51,4.28-8.97,8.77-12.99,13.51l.27-1.5.16-.88v-.02c33.26-31.04,66.84-62.14,100.73-93.32,18.19-16.74,36.47-33.5,54.84-50.28Z"/>
      <path class="cls-54" d="M166,270c-29.75,27.95-60.52,55.84-90.47,84.03-4.01,3.77-8.93,6.67-12.53,10.97.5-1.81,1.7-3.42,3.62-4.82,27.13-25.24,56.42-52.39,84.55-78.4,4.66-4.31,9.31-8.56,14.83-11.78Z"/>
      <path class="cls-54" d="M209,228c-.19.26-.38.53-.58.79.14-.26.33-.53.58-.79Z"/>
      <path class="cls-54" d="M218,218c.1,4.53-4.5,9.79-9,10,3.11-3.11,6.08-6.7,9-10Z"/>
      <path class="cls-69" d="M176,386l.67,2.1c-15.41,14.13-30.82,28.26-46.25,42.39-.06.06-.12.11-.18.17l-2.24-.66-5-5-.66-2.1s.07-.07.11-.1c15.43-14.15,30.87-28.3,46.31-42.46l2.24.66,1.91,1.43.1.07,1.99,1.5c2.63-.71,2.94.15,1,2Z"/>
      <path class="cls-75" d="M152.67,364.1c-12.68,12.48-27.25,25.64-40.75,37.35-2.51,3.22-4.91,4.77-7.22,4.64-.22-.04-.46-.07-.7-.09-1.66-1.66-3.33-3.34-5-5l-.66-2.1c.08-.07.15-.14.23-.21,15.39-14.11,30.79-28.23,46.19-42.35l2.24.66c1.67,1.66,3.34,3.34,5,5,.48.64,1.07,1.71.67,2.1Z"/>
      <path class="cls-38" d="M162.67,374.1c-14.28,13.94-30.47,28.79-45.64,41.87-.27.24-.53.46-.79.69l-2.24-.66c-1.66-1.66-3.33-3.34-5-5l-.66-2.1s.07-.07.11-.1c15.43-14.15,30.87-28.3,46.31-42.46l2.24.66c1.67,1.66,3.34,3.34,5,5,.48.64,1.07,1.71.67,2.1Z"/>
      <path class="cls-73" d="M119.72,331.09c-15.1,14.46-30.21,28.92-45.32,43.39-.05.04-.09.09-.14.13l-2.26-.61c-1.65-1.66-3.34-3.33-5-5l48-44,2.99,3c.09.09.19.18.28.27l.73.73.72,2.09Z"/>
      <path class="cls-32" d="M157,367l-48,44c-1.66-1.66-3.33-3.34-5-5l48-44c1.67,1.66,3.34,3.34,5,5Z"/>
      <path class="cls-59" d="M251,185c-7.7,13.07-19.98,25.21-33,33-26.14,24.45-52.78,48.78-79.36,73.21-15.64,14.39-31.25,28.81-46.72,43.32-5.67,5.31-11.31,10.63-16.93,15.96-4.51,4.28-8.97,8.77-12.99,13.51-.66-.67-1.33-1.33-2-2,2.17-1.95,4.88-3.56,7.02-5.49,62.06-55.85,123.39-114.5,183.98-171.51Z"/>
      <path class="cls-49" d="M376.85,588.67c-.52,1.37-2.08,2.52-4.68,3.43l-40.4,39.01-.52.5-2.25-.61c-1.69-1.66-3.32-3.34-5-5l-.66-2.1c.07-.07.15-.13.22-.2,15.34-14.06,30.68-28.13,46.03-42.2.06-.06.11-.11.17-.16l2.24.66c1.66,1.68,3.34,3.28,5,5,.1.59.05,1.15-.15,1.67Z"/>
      <path class="cls-44" d="M184.21,406.07l-39.82,38.41-.14.13-2.25-.61c-1.66-1.66-3.33-3.34-5-5l-.71-2.09c.05-.05.1-.1.15-.14,15.1-14.46,30.2-28.92,45.31-43.38l2.25.61c1.97,1.99,4.02,4.03,6,6,.55,2.15-1.38,4.18-5.79,6.07Z"/>
      <path class="cls-31" d="M351.67,563.1s-.08.07-.12.11c-15.41,14.12-30.81,28.25-46.24,42.39-.02.02-.05.04-.07.06l-2.24-.66c-1.33-1.33-2.66-2.67-4-4l-.66-2.1s.07-.07.11-.1c15.41-14.13,30.82-28.26,46.24-42.4.02-.02.05-.04.07-.06l2.24.66c1.33,1.33,2.67,2.66,4,4l.67,2.1Z"/>
      <path class="cls-71" d="M138.67,350.1c-15.45,14.16-30.89,28.33-46.36,42.5-.02.02-.05.04-.07.06l-2.24-.66-5-5-.66-2.1c.08-.07.15-.14.23-.21,15.39-14.11,30.79-28.23,46.19-42.35l2.24.66,5,5,.67,2.1Z"/>
      <path class="cls-22" d="M290.72,502.09c-.09.08-.17.17-.26.24-15.02,14.38-30.03,28.76-45.06,43.15-.05.04-.09.09-.14.13l-2.26-.61c-1.66-1.66-3.33-3.34-5-5v-2.65c15.65-13.58,30.59-27.55,44.84-41.94l2.16-.41c1.67,1.66,3.34,3.34,5,5l.72,2.09Z"/>
      <path class="cls-50" d="M273.64,485.63c-.19,1.65-1.43,3.38-3.75,5.18-12.66,10.92-25.11,22.41-37.36,34.48-1.73,1.86-3.99,2.67-6.53,2.71-1.32-1.31-2.68-2.73-4-4l-.71-2.09c.21-.2.41-.4.62-.59,14.93-14.3,29.87-28.6,44.81-42.9,0-.01.02-.02.03-.03l2.25.61c1.34,1.33,2.67,2.67,4,4,.53.85.74,1.73.64,2.63Z"/>
      <path class="cls-3" d="M171,381l-48,44c-1.66-1.66-3.33-3.34-5-5l-.66-2.1c.24-.22.48-.44.72-.66,15.23-13.96,30.46-27.93,45.7-41.9l2.24.66,1.88,1.88,1.87,1.88c.42.42.84.83,1.25,1.24Z"/>
      <path class="cls-49" d="M194.67,406.1c-15.45,14.16-30.89,28.33-46.36,42.49-.02.03-.05.05-.07.07l-2.24-.66c-1.32-1.33-2.67-2.67-4-4l40.99-39.51,7.01-4.49c1.26,1.25,2.77,2.87,4,4l.67,2.1Z"/>
      <path class="cls-70" d="M133,343l-48,44c-1.32-1.33-2.67-2.67-4-4l-.66-2.1s.07-.07.11-.1c15.43-14.15,30.87-28.3,46.31-42.46l2.24.66,4,4Z"/>
      <path class="cls-5" d="M184,394l-47,45c-1.66-1.66-3.33-3.34-5-5l-.66-2.1c.08-.07.15-.14.23-.21,15.39-14.11,30.79-28.23,46.19-42.35l2.24.66c.05-.09.09-.19.12-.29.28-.57.57-.47.88.29.98,1.2,1.97,2.96,3,4Z"/>
      <path class="cls-13" d="M129,339l-48,44-5-5-.66-2.1c.08-.07.15-.14.23-.21,15.39-14.11,30.79-28.23,46.19-42.35l2.24.66,2.49,2.5c.21.2.42.41.63.62l1.88,1.88Z"/>
      <path class="cls-76" d="M143.67,355.1c-15.41,14.13-30.82,28.26-46.25,42.39-.06.06-.12.11-.18.17l-2.24-.66c-1.66-1.66-3.33-3.34-5-5l48-44,5,5,.67,2.1Z"/>
      <path class="cls-30" d="M198.46,410.16c-13.03,14.54-28.71,28.27-43.99,41.3l-3.47,1.54c-1.65-1.66-3.34-3.34-5-5l48-44c1.16,1.06,2.74,2.02,4,3v1l.46,2.16Z"/>
      <line class="cls-21" x1="198.63" y1="407.54" x2="198" y2="408"/>
      <path class="cls-16" d="M124,334l-48,44c-1.32-1.33-2.67-2.66-4-4l47-45,5,5Z"/>
      <path class="cls-26" d="M285,495c-1.01,5.26-6.62,7.32-9.5,10-10.05,9.34-19.32,19.26-29.48,28.51-2.39,2.18-5.58,4.2-8.02,6.49l-4-4-.71-2.09c.09-.08.17-.17.26-.25,15.02-14.37,30.04-28.76,45.07-43.14.04-.05.09-.09.13-.13l2.25.61c1.34,1.33,2.67,2.67,4,4Z"/>
      <path class="cls-69" d="M360,570c-.13,1.91-1.47,3.54-4.01,4.9-11.35,12.21-24.5,24.14-37.4,35.53-.9.8-1.97,1.42-3.07,2.01-1.13.61-2.31,1.1-3.52,1.56-1.34-1.33-2.66-2.67-4-4l.41-2.44c13.95-14.84,29.21-29.62,44.84-42.39h.01s2.74.83,2.74.83c1.33,1.33,2.67,2.66,4,4Z"/>
      <path class="cls-79" d="M147,357l-48,44-4-4,48-44c1.32,1.33,2.68,2.68,4,4Z"/>
      <path class="cls-6" d="M269,479l-47,45c-1.39-1.34-3.43-2.77-5-4-.08-.32.12-.75,0-1l3.03-4.4c15.17-13.15,29.09-26.64,41.75-40.46l2.22-.14c1.68,1.66,3.34,3.34,5,5Z"/>
      <path class="cls-58" d="M338.67,550.1c-.08.07-.15.14-.23.21-15.33,14.06-30.67,28.12-46.02,42.18-.06.06-.12.11-.18.17l-2.24-.66c-1.33-1.33-2.66-2.67-4-4l-.66-2.1c.08-.07.15-.14.23-.21,15.34-14.06,30.67-28.13,46.02-42.19.06-.06.11-.11.17-.16l2.24.66c1.33,1.33,2.67,2.66,4,4l.67,2.1Z"/>
      <path class="cls-1" d="M347,557l-48,44c-1.66-1.66-3.33-3.34-5-5l-.66-2.1c.08-.07.15-.14.23-.21,15.34-14.06,30.67-28.13,46.02-42.19.06-.06.11-.11.17-.16l2.24.66c1.66,1.66,3.34,3.33,5,5Z"/>
      <path class="cls-10" d="M300.04,510.84c-.14,1.75-1.77,3.17-4.87,4.26l-40.78,39.38-.14.13-2.25-.61c-1.66-1.66-3.33-3.34-5-5l-.71-2.09c.09-.08.17-.17.26-.25,15.02-14.37,30.04-28.76,45.07-43.14.04-.05.09-.09.13-.13l2.25.61c2,2,4.01,4,6,6,.05.29.06.57.04.84Z"/>
      <path class="cls-79" d="M334,544l-48,44c-1.33-1.33-2.66-2.67-4-4,.04-.82.11-1.62.31-2.4.8-3.04,40.27-42,44.2-43.02.05-.01.09-.02.13-.02,1.17.18,2.3.66,3.36,1.44l4,4Z"/>
      <path class="cls-13" d="M317.67,529.1c-.07.07-.15.13-.22.2-15.34,14.06-30.67,28.13-46.03,42.19-.06.06-.12.11-.18.17l-2.24-.66-5-5-.66-2.1c.08-.07.15-.14.23-.21,15.34-14.06,30.67-28.13,46.02-42.19.06-.06.11-.11.17-.16l2.24.66,5,5,.67,2.1Z"/>
      <path class="cls-20" d="M264,474c-1.32,3.75-5.55,7.28-8.47,10.03-12.61,11.86-25.47,23.7-38.53,34.97-.19-.41-3.28-2.24-4-3l-.74-2.07c.26-.25.52-.51.78-.76,14.86-14.55,29.72-29.1,44.59-43.64.04-.04.08-.08.12-.12l2.25.59c1.35,1.33,2.67,2.67,4,4Z"/>
      <path class="cls-16" d="M312,522l-48,44-4-4-.66-2.1c.08-.07.15-.14.23-.21,15.34-14.06,30.67-28.13,46.02-42.19.06-.06.11-.11.17-.16l2.24.66,4,4Z"/>
      <path class="cls-76" d="M330,540c-.21-.03-.4-.06-.59-.07-1.84-.11-2.6.94-3.94,2.03-9.69,7.82-21.61,20.12-30.99,29.01-4.34,4.11-8.61,8.47-12.48,13.03-1.66-1.66-3.33-3.34-5-5-.47-.64-1.06-1.71-.66-2.1.24-.23.47-.46.71-.69,12.69-12.45,28.38-27.5,41.98-38.44,1.35-1.83,2.66-2.85,3.95-3.08.68-.12,1.36-.02,2.02.31,1.66,1.66,3.34,3.33,5,5Z"/>
      <path class="cls-46" d="M294,504l-47,45-4-4,47-45c1.34,1.33,2.67,2.67,4,4Z"/>
      <path class="cls-52" d="M304.67,516.1c-.08.07-.15.14-.23.21-15.33,14.06-30.67,28.12-46.02,42.18-.06.06-.12.11-.18.17l-2.24-.66-4-4,41.99-40.51,6.01-3.49,4,4,.67,2.1Z"/>
      <polygon class="cls-73" points="308 518 260 562 256 558 304 514 308 518"/>
      <path class="cls-70" d="M321.67,533.1c-.08.07-.15.14-.23.21-15.13,13.87-30.27,27.75-45.42,41.64-.26.23-.52.47-.78.71l-2.24-.66-4-4,48-44c1.34,1.33,2.67,2.67,4,4l.67,2.1Z"/>
      <path class="cls-44" d="M372,582l-48,44c-1.34-1.33-2.66-2.67-4-4l.46-3.62c5.26-5.77,10.67-11.31,16.22-16.62l.09-.09c3.3-3.15,6.64-6.21,10.03-9.19,6.02-5.3,12.2-10.35,18.54-15.14.2-.15.41-.31.61-.46l2.05,1.12c1.33,1.34,2.67,2.65,4,4Z"/>
      <path class="cls-30" d="M381.67,593.1c-.21.2-.42.41-.63.61-14.17,13.8-30.15,28.45-45.13,41.37-.23.2-.45.39-.67.58l-2.24-.66c-1.39-1.33-2.65-2.68-4-4l41.99-40.51,6.01-3.49c1.31,1.35,2.68,2.61,4,4,.48.64,1.07,1.71.67,2.1Z"/>
      <polygon class="cls-78" points="325 535 277 579 273 575 273.3 574.72 273.33 574.7 321 531 325 535"/>
      <path class="cls-27" d="M356,566c-8.21,3.84-13.2,11.15-19.47,17.03-9.52,8.93-19.86,17.21-28.53,26.97-1.67-1.66-3.33-3.34-5-5l48-44c1.66,1.67,3.34,3.33,5,5Z"/>
      <polygon class="cls-34" points="342 552 294 596 290 592 338 548 342 552"/>
      <path class="cls-41" d="M260,470l-46.79,45.79-.21.21c-1.34-1.41-2.58-2.65-4-4l-.74-2.07c.34-.33.67-.66,1.01-.98,14.65-14.35,29.3-28.69,43.96-43.03.17-.17.35-.34.52-.51l2.25.59c1.34,1.33,2.67,2.69,4,4Z"/>
      <path class="cls-36" d="M180.12,389.71c-.03.1-.07.2-.12.29l-48,44-4-4,48-44c2.52-2.31,4.73,1.78,4.12,3.71Z"/>
      <path class="cls-17" d="M201.99,415.19l-44.23,41.96-.5.47-2.26-.62c-1.25-1.31-2.69-2.69-4-4,11.79-11.72,24.45-22.56,36.53-33.97,1.99-1.88,9.42-10.71,10.47-11.03.28-.08.66.05,1,0,2.48.51,3.48,1.51,3,3,.41.42.61,1.44,1,2,.23,1.21.11,2.16-1.01,2.19Z"/>
      <path class="cls-17" d="M203.01,413h-.01c.12-.65.47-.98.85-1-.03.26-.29.57-.84,1Z"/>
      <polygon class="cls-2" points="166 376 118 420 114 416 114.25 415.77 162 372 166 376"/>
      <path class="cls-81" d="M204.23,412.07c-.11-.02-.22-.04-.33-.07.11-.01.23.01.33.07Z"/>
      <path class="cls-81" d="M206.9,415.37c.07,1.67-1.73,3.43-3.9,3.63-10.05,12.95-31.51,30.68-44,43-1.23-1.57-2.66-3.6-4-5l45.49-43.06c.69-.87,1.68-.7,2.51-.94.12-.65.47-.98.85-1-.03.26-.29.57-.84,1,.12,0,.5.39,1.99,0,1.31.6,1.88,1.48,1.9,2.37Z"/>
      <path class="cls-43" d="M256,466l-47,46c-.99-.94-1.55-2.34-2.8-2.83-.34-.13-.73-.2-1.2-.17l47-47c1.85.81,2.66,2.67,4,4Z"/>
      <path class="cls-56" d="M277.72,489.09c-.09.08-.17.17-.26.24-15.02,14.38-30.03,28.76-45.06,43.15-.05.04-.09.09-.14.13l-2.26-.61c-1.33-1.32-2.67-2.69-4-4,7.67-5.92,14.9-12.8,22.02-19.49,3.32-3.12,6.34-7.34,9.34-10.16,4.89-4.59,12.98-8.45,15.64-15.35l4,4,.72,2.09Z"/>
      <path class="cls-4" d="M364.67,576.1c-.08.07-.15.14-.23.21-5.88,5.39-11.76,10.78-17.64,16.17-3.34,3.06-6.68,6.13-10.03,9.19l-.09.09c-6.08,5.57-12.17,11.15-18.26,16.73-.06.06-.12.11-.18.17l-2.24-.66c-1.34-1.33-2.66-2.67-4-4,11.18-10.98,23.17-21.19,34.53-31.97,4.2-3.99,8.3-10.37,13.47-12.03,1.33,1.33,2.67,2.66,4,4l.67,2.1Z"/>
      <path class="cls-5" d="M368,578c-2.34.41-4.25,2.02-6.01,3.49-10.28,8.62-21.52,20.09-31.51,29.48-3.65,3.43-7.3,7.16-10.48,11.03-1.33-1.33-2.66-2.68-4-4l48-44c1.32,1.33,2.68,2.66,4,4Z"/>
      <path class="cls-57" d="M281,491l-47,45c-1.33-1.33-2.67-2.68-4-4l47-45c1.34,1.33,2.67,2.67,4,4Z"/>
      <path class="cls-65" d="M385.63,596.12c-3.09,2.7-6.17,5.43-9.23,8.18-12.52,11.24-24.76,22.86-36.71,34.87l-.44.44-2.25-.61c-1.4-1.32-2.65-2.71-4-4l48-44c1.38,1.44,2.47,2.03,4,4l.63,1.12Z"/>
      <path class="cls-81" d="M386.53,597l-45.53,45.53c-1.63.69-3.12-2.7-4-3.53l40.99-39.51,7.01-4.49c.34.44,2.62.9,1.53,2Z"/>
      <path class="cls-68" d="M41,660c-.35.03-.7.06-1.05.1-1.27.12-2.57.25-3.9.41-.55.06-1.1.12-1.66.19-.79.09-1.58.2-2.39.3-4.65.05-9.34-.04-14,0,1.13-1.48-1.13-.37,2-2,6.17,2.69,14.61-2.49,21,1Z"/>
      <path class="cls-18" d="M25,664h-13.99c.09-2.02,3.72-.65,5.28-1,.71-.15,1.21-1.34,1.71-2v1.17s.01.83.01.83c.05.04.33.06.74.06,2.09.03,7.73-.23,6.25.94Z"/>
      <path class="cls-51" d="M62,357c-1.05,1.13-2.02,2.75-3,4-.33-.33-.66-.67-1-1,.76-1.73,2.03-2.93,4-3Z"/>
      <path class="cls-28" d="M348,6c-24.36,24.24-49.75,47.63-75,71l-4,3c-4.28,3.92-8.11,7.66-12,12l-4,3c-3.98,3.66-7.36,6.98-11,11l-5,4c-3.13,2.97-5.96,5.98-9,9-1.28,1.09-2.01,1.32-2.17.67h0c-.09-.34-.03-.89.17-1.67,38.97-39.01,77.3-78.72,117-117,2.38.97,3.45,3.44,5,5Z"/>
      <path class="cls-55" d="M354,281c-3.71,4.1-8.93,6.9-12.89,10.61-34.55,32.33-68.12,65.18-102.58,97.42-9.53,8.91-20.69,20.32-30.51,28.49-.96.8-3.9,3.71-5.02,1.48,1.45-1.86,2.42-3.51,2-6,.85-.22,1.79.14,2.95-.52.68-.38.81-1.3,1.05-1.48l.93-3.25c6.59-5.8,12.81-12.19,18.68-19.17l3.39-.58,5.2-4.73c.1-.09.2-.18.31-.27l5.49-5c34.6-34.07,69.89-67.44,105.87-100.1.07-.06.13-.12.2-.18l1.93.28,3,3Z"/>
      <path class="cls-39" d="M351,278l-108,100c19.08-18.93,37.59-38.38,57-57l1-2.81c5.88-6.18,40.05-41.47,45.32-42.99.12-.04.22-.06.31-.06.88,0,1.67.34,2.37.86.67.67,1.34,1.33,2,2Z"/>
      <path class="cls-63" d="M306.72,235.09s-.05.04-.07.06c-15.13,14.48-30.25,28.97-45.39,43.46l-2.26-.61c-1.66-1.66-3.33-3.34-5-5l-.71-2.09c15.11-14.46,30.21-28.93,45.33-43.39.04-.05.09-.09.13-.13l2.25.61c1.67,1.66,3.34,3.34,5,5l.72,2.09Z"/>
      <path class="cls-64" d="M291.94,221.14c-.81,4.69-38.13,39.25-45.77,43.03l-2.17-1.17c-1.66-1.66-3.33-3.34-5-5l.95-2.85c15.2-13.51,30.1-27.18,44.72-41l2.33-.15c1.67,1.66,3.34,3.34,5,5,.05.72.06,1.44-.06,2.14Z"/>
      <path class="cls-52" d="M312.67,241.1c-.07.07-.15.14-.22.21-14.47,14.12-30.89,29.16-46.21,42.35l-2.24-.66c-1.66-1.66-3.33-3.34-5-5l47-45,6,6c.48.64,1.07,1.71.67,2.1Z"/>
      <path class="cls-25" d="M297.72,226.09c-.08.08-.16.17-.25.25-12.32,12.65-26.52,26.09-39.65,37.95-2.69,3.61-5.29,5.18-7.82,4.71-1.99-2-4-4-6-6,1.82-.12,3.1-.93,4.5-1.99,9.42-7.15,22.83-21.3,32.03-29.98,3.99-3.77,7.96-7.82,11.47-12.03,1.67,1.66,3.34,3.34,5,5,.49.63,1.1,1.69.72,2.09Z"/>
      <path class="cls-83" d="M269.67,198.1c-.1.09-.21.19-.31.29-15.37,14.08-30.73,28.17-46.12,42.27l-2.24-.66c-1.67-1.67-3.33-3.32-5-5-.47-.64-1.06-1.71-.66-2.1,12.82-12.57,29.25-28.54,43.13-39.54,1-1.37,1.99-2.24,2.98-2.6.85-.3,1.7-.23,2.55.24,1.64,1.67,3.35,3.35,5,5l.67,2.1Z"/>
      <path class="cls-75" d="M349,276c-1.71,1.1-3.46,2.15-5.01,3.49-14.6,12.61-29.93,28.02-43.99,41.51-.21-1.85-1.78-3.69-3-5l-.71-2.09c15.11-14.46,30.21-28.93,45.33-43.39.04-.05.09-.09.13-.13l2.25.61c1.66,1.66,3.34,3.33,5,5Z"/>
      <path class="cls-79" d="M344,271l-47,45c-1.45-1.56-3.39-3.36-5-5l-.66-2.1c15.45-14.16,30.89-28.33,46.35-42.5.02-.02.05-.04.07-.06l2.24.66,4,4Z"/>
      <path class="cls-12" d="M330.72,259.09s-.11.1-.16.15c-15.1,14.45-30.19,28.91-45.3,43.37l-2.26-.61c-1.65-1.66-3.34-3.34-5-5l-.66-2.1c15.45-14.16,30.89-28.33,46.35-42.5.02-.02.05-.04.07-.06l2.24.66,4,4,.72,2.09Z"/>
      <path class="cls-73" d="M316.72,245.09s-.11.1-.16.15c-15.1,14.45-30.19,28.91-45.3,43.37l-2.26-.61c-1.66-1.66-3.33-3.34-5-5l48-44,4,4,.72,2.09Z"/>
      <path class="cls-78" d="M335,262l-.42,2.03c-16.11,13.41-30.83,27.65-44.16,42.69l-2.42.28c-1.65-1.66-3.34-3.33-5-5l47-45c1.67,1.66,3.34,3.33,5,5Z"/>
      <path class="cls-13" d="M326,253l-48,44c-1.32-1.33-2.67-2.67-4-4l-1.02-2.31c13.49-15.5,28.49-30.07,45-43.71.12-.1.24-.2.36-.3l2.66,1.32c1.67,1.66,3.34,3.34,5,5Z"/>
      <path class="cls-76" d="M340,267l-48,44c-1.3-1.33-2.68-2.67-4-4,2.31-4.78,7.56-9.3,11.48-13.03,10.38-9.87,20.97-19.8,31.51-29.49,1.22-1.12,2.04-2.48,3.97-2.48h.04c1.66,1.66,3.34,3.34,5,5Z"/>
      <path class="cls-7" d="M264,191l-48,44c-1.34-1.35-2.66-2.61-4-4l-.71-2.09c15-14.35,29.99-28.72,45-43.08.15-.15.31-.29.46-.44l2.25.61c1.71,1.68,3.32,3.29,5,5Z"/>
      <path class="cls-16" d="M321,248h-.04c-1.93,0-2.75,1.36-3.97,2.48-10.54,9.69-21.13,19.62-31.51,29.49-3.92,3.73-9.17,8.25-11.48,13.03-1.66-1.66-3.33-3.34-5-5l47-45c1.67,1.66,3.34,3.34,5,5Z"/>
      <path class="cls-57" d="M287,214c-2.37,5.13-7.35,7.04-11.01,10.49-5.05,4.76-9.95,9.32-15,14-7.17,6.64-13.11,14.78-21.99,19.51l-4-4-.66-2.1c15.45-14.16,30.89-28.33,46.35-42.5.02-.02.05-.04.07-.06l2.24.66c1.34,1.33,2.67,2.67,4,4Z"/>
      <path class="cls-43" d="M209,228c-.19.26-.38.53-.58.79.14-.26.33-.53.58-.79Z"/>
      <path class="cls-43" d="M259,186l-47,45c-.84-.87-2.59-1.33-3-3,3.11-3.11,6.08-6.7,9-10,11.36-10.62,22.47-21.56,33-33,1.12-1.05,2.88-1.95,4-3,2.05.67,2.79,2.81,4,4Z"/>
      <path class="cls-56" d="M283,210l-48,44-4-4,2.49-3.91c15.31-13.15,29.36-26.78,42.16-40.87l2.35-.22c1.67,1.66,3.34,3.34,5,5Z"/>
      <path class="cls-46" d="M301,228l-47,45-4-4,47-45c1.34,1.33,2.67,2.67,4,4Z"/>
      <path class="cls-14" d="M278,205c-1.97,4.43-6.89,8.63-10.47,12.03-11.86,11.25-24.2,22.38-36.53,32.97l-4-4,1.85-2.87.66-1.03c9.38-8.22,18.36-16.55,26.96-25l.24-.24c5.21-5.12,10.27-10.28,15.19-15.49l.58-.1h.02l1.5-.27c1.34,1.33,2.67,2.67,4,4Z"/>
      <path class="cls-6" d="M272.43,200.79c-.1.1-.2.21-.32.34-2.26,2.39-8.36,8.67-15.4,15.73l-.24.24c-10.23,10.25-22.37,22.07-27.62,26.03-1.21.91-2.06,1.4-2.43,1.36-.48-.06-.95-.25-1.42-.49l-4-4,48-44,3.32,3.32c.41.49.53,1.02.11,1.47Z"/>
      <path class="cls-33" d="M274,201c-1.97,4.43-6.89,8.63-10.47,12.03-11.87,11.25-24.14,22.44-36.53,32.97l-2-2,47-45,.32.32c.56.56,1.13,1.12,1.68,1.68Z"/>
      <path class="cls-63" d="M321,115c-15.08,16.23-31.13,31.55-47,47-1.22.44-2.87.49-4,1,.9-1.61,1.95-3.12,3.17-4.52.01-.02.02-.03.04-.04,2.12-2.45,4.72-4.59,7.79-6.44,12.88-13.14,26.96-24.71,40-37Z"/>
      <path class="cls-53" d="M228,119c-5.76,5.74-12.37,13.18-19,16,4.92-6.38,11.36-11.35,17-17l2,1Z"/>
      <path class="cls-85" d="M41,660c.66.04,1.34-.04,1.99.01v.98c-3.65.05-7.34-.03-10.99.01,1.84-1.66,6.36-1.17,9-1Z"/>
      <path class="cls-33" d="M301,79c-2.08,1.99-4.82,3.86-6,5,1.47-2.14,3.22-4.73,6-5Z"/>
      <path class="cls-33" d="M206,168c-1.45,1.61-2.2,3.98-5,4,1.44-1.36,2.14-4.09,5-4Z"/>
      <path class="cls-33" d="M332,50c-1.45,1.61-2.2,3.98-5,4,1.45-1.37,2.14-4.09,5-4Z"/>
      <path class="cls-33" d="M348,35c-1.46,1.6-2.2,3.99-5,4,1.45-1.37,2.14-4.09,5-4Z"/>
      <path class="cls-33" d="M363,21c-.47,2.71-3.94,3.17-5,4,1.22-1.83,2.73-4.26,5-4Z"/>
      <path class="cls-33" d="M269,109c-1.45,1.61-2.2,3.98-5,4,1.45-1.37,2.14-4.09,5-4Z"/>
      <path class="cls-33" d="M316,65c-1.45,1.61-2.2,3.98-5,4,1.45-1.37,2.14-4.09,5-4Z"/>
      <path class="cls-33" d="M253,124c-1.45,1.61-2.2,3.98-5,4,1.45-1.37,2.14-4.09,5-4Z"/>
      <path class="cls-33" d="M238,138c-1.45,1.61-2.2,3.99-5,4,1.45-1.37,2.14-4.09,5-4Z"/>
      <path class="cls-33" d="M191,182c-1.83,1.74-4.23,3.25-5,4,1.12-1.9,2.59-3.87,5-4Z"/>
      <path class="cls-33" d="M222,153c-1.45,1.61-2.2,3.98-5,4,1.45-1.37,2.14-4.09,5-4Z"/>
      <path class="cls-33" d="M285,94c-1.45,1.61-2.2,3.99-5,4,1.45-1.37,2.14-4.09,5-4Z"/>
      <path class="cls-61" d="M250,439c-2.57,2.51-5.12,4.24-7,6,1.79-2.37,3.92-5.55,7-6Z"/>
      <path class="cls-61" d="M360,336c-2.57,2.51-5.12,4.24-7,6,1.79-2.37,3.92-5.55,7-6Z"/>
      <path class="cls-61" d="M203,483c-2.57,2.51-5.12,4.24-7,6,1.79-2.37,3.92-5.55,7-6Z"/>
      <path class="cls-61" d="M281,410c-2.03,1.91-4.82,3.87-6,5,1.47-2.14,3.22-4.73,6-5Z"/>
      <path class="cls-61" d="M265,425c-2.02,1.9-4.84,3.89-6,5,1.47-2.14,3.22-4.73,6-5Z"/>
      <path class="cls-61" d="M312,381c-2.06,1.93-4.77,3.83-6,5,1.47-2.14,3.22-4.73,6-5Z"/>
      <path class="cls-61" d="M234,454c-2.08,1.97-4.77,3.83-6,5,1.47-2.14,3.22-4.73,6-5Z"/>
      <path class="cls-61" d="M375,322c-2.1,2.02-4.85,3.88-6,5,1.47-2.14,3.22-4.73,6-5Z"/>
      <path class="cls-61" d="M171,513c-2.13,2-4.62,3.72-6,5,1.47-2.14,3.22-4.73,6-5Z"/>
      <path class="cls-61" d="M297,395c-2.08,1.97-4.77,3.83-6,5,1.47-2.14,3.22-4.73,6-5Z"/>
      <path class="cls-61" d="M344,351c-2.08,1.97-4.77,3.83-6,5,1.47-2.14,3.22-4.73,6-5Z"/>
      <path class="cls-61" d="M328,366c-2.03,1.91-4.82,3.87-6,5,1.47-2.14,3.22-4.73,6-5Z"/>
      <path class="cls-61" d="M218,469c-2.02,1.9-4.84,3.89-6,5,1.47-2.14,3.22-4.73,6-5Z"/>
      <path class="cls-61" d="M187,498c-2.08,1.97-4.77,3.83-6,5,1.47-2.14,3.22-4.73,6-5Z"/>
      <path class="cls-53" d="M242,106c-1.45,1.61-2.2,3.98-5,4,1.45-1.37,2.14-4.09,5-4Z"/>
      <path class="cls-53" d="M273,77c-1.08,1-1.46,3.22-4,3,1.09-1,1.47-3.15,4-3Z"/>
      <path class="cls-53" d="M257,92c-1.16,1.29-1.52,3.11-4,3,1.1-1.01,1.48-3.23,4-3Z"/>
      <rect class="cls-23" x="196.01" y="520.01" width="1.99" height="4.99"/>
      <path class="cls-51" d="M172,254c-4.59,4.33-9.35,8.64-14,13,2.52-5.51,8.63-10.52,14-13Z"/>
      <path class="cls-51" d="M156,269c-4.57,4.29-9.33,8.62-14,13,2.52-5.51,8.63-10.52,14-13Z"/>
      <path class="cls-51" d="M109,313c-4.57,4.28-9.33,8.63-14,13,2.52-5.51,8.63-10.52,14-13Z"/>
      <path class="cls-51" d="M187,240c-4.32,4.2-8.63,7.87-13,12,2.15-5.19,8.03-9.75,13-12Z"/>
      <path class="cls-51" d="M140,284c-4.27,4-8.61,7.96-13,12,2.15-5.19,8.03-9.75,13-12Z"/>
      <path class="cls-51" d="M124,299c-4.24,3.97-8.69,7.97-13,12,2.15-5.19,8.03-9.75,13-12Z"/>
      <path class="cls-51" d="M77,343c-4.31,4.04-8.49,7.96-13,12,2.15-5.19,8.03-9.75,13-12Z"/>
      <path class="cls-51" d="M93,328c-4.27,4-8.61,7.96-13,12,2.15-5.19,8.03-9.75,13-12Z"/>
      <path class="cls-51" d="M203,225c-1.64,1.98-3.28,4.1-5,6l-4,3c-1.43,1.3-3.67,2.67-5,4,2.52-5.51,8.63-10.52,14-13Z"/>
      <path class="cls-51" d="M219,210c-1.57,1.81-3.35,4.38-5,6l-5,4c-1.41.91-2.59,2.09-4,3,.17-.19.12-1.58.94-2.51,3.52-3.91,8.14-8.46,13.06-10.49Z"/>
      <path class="cls-51" d="M266,166c-1.6,1.48-3.41,4.43-5,6l-5,4c-1.42.91-2.59,2.09-4,3,.17-.19.12-1.58.94-2.51,3.52-3.91,8.14-8.46,13.06-10.49Z"/>
      <path class="cls-51" d="M281,152c-3.65,3.72-7.53,7.13-11,11-.64.29-1.44.62-2,1,2.15-5.19,8.03-9.75,13-12Z"/>
      <path class="cls-51" d="M234,196c-1.61,1.59-3.39,4.48-5,6l-4,3c-1.4.93-2.6,2.08-4,3,.17-.2.11-1.58.94-2.51,3.21-3.58,7.53-7.7,12.06-9.49Z"/>
      <path class="cls-51" d="M250,181c-1.64,1.98-3.28,4.1-5,6l-4,3c-1.15,1.01-2.92,1.95-4,3,2.15-5.19,8.03-9.75,13-12Z"/>
      <path class="cls-63" d="M214,216c-.81.8-1.28,2.06-2.47,3.05-.91.75-2.05.65-2.53.95,1.09-1.92,2.61-3.86,5-4Z"/>
      <path class="cls-63" d="M261,172c-.81.8-1.28,2.06-2.47,3.05-.91.75-2.05.65-2.53.95,1.09-1.92,2.61-3.86,5-4Z"/>
      <path class="cls-63" d="M229,202c-2.07,1.96-1.92,1.63-4,3,.76-1.73,2.03-2.93,4-3Z"/>
      <path class="cls-63" d="M245,187c-1.17,1.29-1.5,3.03-4,3,1.04-.92,1.47-3.26,4-3Z"/>
      <path class="cls-63" d="M198,231c-1.17,1.29-1.5,3.03-4,3,1.07-.97,1.46-3.24,4-3Z"/>
      <path class="cls-74" d="M117.99,328c-1.15-1.1-2.58-2.39-2.99-3l2.99,3Z"/>
      <path class="cls-74" d="M119,329l-.73-.73c.27.26.52.51.73.73Z"/>
      <path class="cls-74" d="M122.12,332.12c-1.06-1.04-2.14-2.08-3.12-3.12l3.12,3.12Z"/>
      <path class="cls-74" d="M172.91,382.43c-.71-.46-1.4-.93-1.91-1.43l1.91,1.43Z"/>
      <path class="cls-74" d="M175,384l-1.99-1.5c.74.5,1.48.98,1.99,1.5Z"/>
      <path class="cls-74" d="M175,384c-1.13-5.18,1.38-11.74.96-16.37-.39-4.34-6.27-15.54-7.97-21.11-3.74-12.21-6.42-27.26-6.97-40.03-.13-3.01-1.01-8.25,1.97-9.49l.02,5,2.98-2.99c.84,7.08,2.55,14.04,4.01,20.99-3.16-4.05-4.9-9.17-5.21-15.37-2.48-5.23-1.71,4.19-1.47,6.59,1.68,17.48,5.14,34.21,12.72,49.72,1.45,3.06,1.85,5.83,1.92,9.17.07,3.48-.9,11.74-2.96,13.89Z"/>
      <path class="cls-74" d="M178,312c-2.29-.56-3.57-2.99-3.84-7.29.3-4.12-.42-5.69-2.16-4.71.3-2.3.17-4.22.87-6.68.47-1.7-.74-2.79,2.13-2.32l1.13,13.38,1.87,7.62Z"/>
      <path class="cls-74" d="M182,299c-.56-.15-1.33-.38-1.73-.71.31,4.2.04,13.38-2.27,13.71v-16.5c.71.08,1.62.23,1.93.75-.01-.65-.02-1.31-.02-1.99l-1.91,1.24c0-3.24,1.5-13.22,2.27-16.74.21-.98.35-3,1.73-2.76v23Z"/>
      <polygon class="cls-74" points="187 285.5 185.5 285.19 184.18 297.88 182 299 185.01 278.01 187 285.5"/>
      <path class="cls-74" d="M187,285.5v17.5c-.76-.1-1.83-.27-2-.87-.73-2.64-.41-15.23,2-16.63Z"/>
      <path class="cls-74" d="M194,343l-2.28-1.39c-1.42-12.67-2.03-25.47-1.85-38.4-.83,1.09-1.91.76-2.87-.21,1.49.09,1.78-3.59,1.88-4.62.59-5.62-.95-13.92,3.11-18.38.33,11.15-.39,22.39-.03,33.54.28,8.48.47,21.53,2.04,29.46Z"/>
      <path class="cls-74" d="M195,342.35c.07-.5.08-1.22.02-2.16-.01-.07-.02-.13-.02-.19.03.14.05.26.07.39v.03c.13.86.1,1.5-.07,1.93Z"/>
      <path class="cls-74" d="M204,266l-1.1-.6.12,16.08c-1.95.46-3.13,1.31-3.55,2.54-2.35,17.58-3.45,35.24-3.3,52.97l-1.17,3.01c-1.32-21.57-.1-43.87,4.01-64.99l1.98,6.99,1.02-18.99c3.32-.67,1.49,1.67,1.99,2.99Z"/>
      <path class="cls-74" d="M209,228c-.19.26-.38.53-.58.79.14-.26.33-.53.58-.79Z"/>
      <path class="cls-74" d="M212.01,329.93c-1.2.3-1.79-.53-2.01-3.08-.09-19.16-1.69-38.35-4-56.85,2.35,6.48,3.21,11.4,3.99,18.51,1.52,13.71,1.98,27.64,2.02,41.42Z"/>
      <path class="cls-74" d="M216.25,300.21c-.15-.09-.22-.29-.25-.48-.04,4.81-.67,28.28-1.85,29.08-.86.58-1.56.98-2.13,1.12l2.02-19.39c1.22-8.14-1.86-22.51.18-29.83.22-.81.87-1.7,1.77-1.71l2.02,21c1.06.4,1.99-3.3,1.99-3.5,3.57,1.55.71,6.37-3.75,3.71Z"/>
      <path class="cls-74" d="M221.89,293.38c-.08-2.19-.22-4.31-.44-6.36.33,4.17.38,8.31-.11,8.82-.33.34-.81.52-1.34.66v-18.5c3.86-.79,1.18,5.18,2.13,7.38l1.87,8.62-2.11-.62Z"/>
      <path class="cls-74" d="M237.2,383.27l-5.2,4.73c1.64-1.62,3.42-3.17,5.2-4.73Z"/>
      <path class="cls-74" d="M243,378c-1.73,1.72-3.61,3.36-5.49,5l5.49-5Z"/>
      <path class="cls-74" d="M244.99,296.01l-2,6.99-1.19-2.4c-.09-.59-.23-.92-.45-.91l-.34-.68c-.58,5.02-1.38,10.07-2.49,15-.42,1.84-.84,6.11-2.51,6.99-.2-9.42.56-20.41-1.96-29.54-.38-1.38-.12-3.11-2.04-3.46.02,8.45-.05,17.1-1.01,25.49-.17,1.47-.46,5.99-1.99,6.51-.22-13.65.28-29.3-2.98-42.57-.42-1.7.99-2.9-2.03-2.43v19c.88-.2,1.49-.7,2-1.41.1-.14.15-.84.14-1.88.6,9.29.95,18.64.9,27.97.27.82.6,1.57,1.17,2.03,4.3,3.51,5.54-10.51,5.62-15.44l.32,14.98c.85,2.38,2.28,1.87,4.42.88,1.38-.64,3.16-12,3.32-17.92.37.76.85,1.32,1.4,1.19.29,22.47-6.61,44.14-15.26,64.04,2.08,5.89,2.5,11.08,1.92,17.52l2.05,2.04c-.24-4.43.38-9.03-.05-13.44-.2-2.07-2.09-3.6-1.94-5.98.13-2.1,4.88-10.78,6.01-14.06,6.6-19.2,10.39-38.02,8.97-58.51ZM224.72,276.6c.21.27.3.03.28-.7.14,1.59.27,3.18.4,4.77-.2-1.6-.43-3.04-.68-4.07Z"/>
      <path class="cls-66" d="M244.99,296.01l-2,6.99-1.19-2.4-.45-.91-.34-.68c-.58,5.02-1.38,10.07-2.49,15-.42,1.84-.84,6.11-2.51,6.99-.2-9.42.56-20.41-1.96-29.54-.38-1.38-.12-3.11-2.04-3.46.02,8.45-.05,17.1-1.01,25.49-.17,1.47-.46,5.99-1.99,6.51-.22-13.65.28-29.3-2.98-42.57-.42-1.7.99-2.9-2.03-2.43v19l-1.87-8.62c-.95-2.2,1.73-8.17-2.13-7.38v18.5c0,.2-.93,3.9-1.99,3.5l-2.02-21c-.9.01-1.55.9-1.77,1.71-2.04,7.32,1.04,21.69-.18,29.83l-2.02,19.39v.07s-.01-.07-.01-.07c-.04-13.78-.5-27.71-2.02-41.42-.78-7.11-1.64-12.03-3.99-18.51-.07,2.49.11,5.01,0,7.51-.05,1.21.76,3.72-.99,3.49l-1.01-15c-.5-1.32,1.33-3.66-1.99-2.99l-1.02,18.99-1.98-6.99c-4.11,21.12-5.33,43.42-4.01,64.99,0,.06.01.12.02.19.06.94.05,1.66-.02,2.16.17-.43.2-1.07.07-1.93.38,1.44,1.9,4.4.92,6.58-2.22-.46-1.67-2.43-1.99-4-1.57-7.93-1.76-20.98-2.04-29.46-.36-11.15.36-22.39.03-33.54-4.06,4.46-2.52,12.76-3.11,18.38-.1,1.03-.39,4.71-1.88,4.62v-17.5l-1.99-7.49-3.01,20.99v-23c-1.38-.24-1.52,1.78-1.73,2.76-.77,3.52-2.27,13.5-2.27,16.74v16.5l-1.87-7.62-1.13-13.38c-2.87-.47-1.66.62-2.13,2.32-.7,2.46-.57,4.38-.87,6.68.51,8.8-.68,18.29,0,27,0,.05.03.1.06.16.29.51,1.52,1.5.93,2.84-1.67-.25-1.67-1.7-1.99-3-.47-1.98-.53-4.79-1-7-1.46-6.95-3.17-13.91-4.01-20.99l-2.98,2.99-.02-5c-2.98,1.24-2.1,6.48-1.97,9.49.55,12.77,3.23,27.82,6.97,40.03,1.7,5.57,7.58,16.77,7.97,21.11.42,4.63-2.09,11.19-.96,16.37.42.42.58,1.56,1,2,1.16,1.2,3.35,1.95,4,4,.26-.12.69.11,1,0,2.07-.7,3.7-1.38,6-1.01-.44-2.25-6.44.24-6.99-2.5-.49-2.43,2.59-2.35,3.99-2.49,6.67-.65,14.22.47,21,.01.05,1.65-2.8,1.63-4,1.99l.66,2.63.34,1.37,4,1.01-1.54,1.53v.02s-.46.44-.46.44c-.01.15-.89.52-1.01.98l9.01.03-6.01,3.49,6.01.51-5.01,2.49c.04.94,3.84.45,5.01.5,1.33.06,2.68-.05,4,.01.15,1.76-3.25,1.68-5,1.99-3.84.69-7.85.84-11.65,1.86l.65,1.14c2.14-.34,6.31-.46,7,1.99-2.56.26-5.52-.33-8,.01.42,1.67,2.15,2.12,3,3h7c8.55-6.26,15.48-15.59,23-23-.24-4.43.38-9.03-.05-13.44-.2-2.07-2.09-3.6-1.94-5.98.13-2.1,4.88-10.78,6.01-14.06,6.6-19.2,10.39-38.02,8.97-58.51ZM179.01,350.01h.98c-.25,1.16,1.36,4.65,1.01,4.98-.15.15-1.37-.05-1.99.01v-4.99ZM190,358.01v5.99h-.99c.48-2.89-2.86-6.8.99-5.99ZM203,325h1v33h-1v-33ZM195.01,350c2.26.6,2.14,3.13,1.98,5-.58,1.23-2.49-3.61-1.98-5ZM189,357c-3,.48-1.61-.73-2.02-2.43-1.3-5.33-2.02-11.06-1.98-16.57-1.76-1.12-.86-4.11-1-6-.09-1.32.1-2.68,0-4,0-.09-.85.12-.97-1.48-.15-2.17-.02-4.35-.02-6.51,2,.38,1.94,5.22,1.99,6.99.04.98.07,2.02,0,3,1.36.47.89,1.94,1,3,.88,8,2.64,15.93,3,24ZM203.9,412c.11.03.22.05.33.07-.1-.06-.22-.08-.33-.07ZM199.75,406.18c.09-.04.17-.1.25-.18-.05.01-.13.08-.25.18ZM212.55,376.96c-10.51-.6-21.12.32-31.55,1.04v3h45c.2-3.75-10.25-3.86-13.45-4.04ZM222,371c-1.74-1.24-36.64.95-42,0-.82,3.51,1.5,3.74,4.49,4,8.64.76,26.58.96,35.06.05,1.03-.11,3.42-.41,3.43-1.55,0-.13-.87-2.42-.98-2.5Z"/>
      <polyline class="cls-21" points="201 386 201.66 388.63 202 390"/>
      <path class="cls-62" d="M200,406c-.08.08-.16.14-.25.18.12-.1.2-.17.25-.18Z"/>
      <path class="cls-72" d="M200,406c-.08.08-.16.14-.25.18.12-.1.2-.17.25-.18Z"/>
      <path class="cls-19" d="M203.85,412c-.03.26-.29.57-.84,1h-.01c.12-.65.47-.98.85-1Z"/>
      <path class="cls-19" d="M204.23,412.07c-.11-.02-.22-.04-.33-.07.11-.01.23.01.33.07Z"/>
      <path class="cls-37" d="M195,342.35c.07-.5.08-1.22.02-2.16.02.06.03.13.05.2v.03c.13.86.1,1.5-.07,1.93Z"/>
      <path class="cls-11" d="M171.72,327.56c.1-.1.19-.29.28-.56,0,.05.03.1.06.16.17.49.05.62-.34.4Z"/>
    </g>
  </g>
</svg>