<?xml version="1.0" encoding="UTF-8"?>
<svg id="Layer_2" data-name="Layer 2" xmlns="http://www.w3.org/2000/svg" xmlns:xlink="http://www.w3.org/1999/xlink" viewBox="0 0 569.93 567.64">
  <defs>
    <style>
      .cls-1 {
        fill: url(#linear-gradient-2);
      }

      .cls-2 {
        fill: url(#linear-gradient-3);
      }

      .cls-3 {
        fill: url(#linear-gradient);
      }
    </style>
    <linearGradient id="linear-gradient" x1="-52.48" y1="282.17" x2="889.74" y2="8.39" gradientUnits="userSpaceOnUse">
      <stop offset="0" stop-color="#3f51ff"/>
      <stop offset="1" stop-color="#0011bf"/>
    </linearGradient>
    <linearGradient id="linear-gradient-2" x1="-23.8" y1="380.87" x2="918.42" y2="107.09" gradientUnits="userSpaceOnUse">
      <stop offset="0" stop-color="#2aa9ff"/>
      <stop offset=".91" stop-color="#3200aa"/>
    </linearGradient>
    <linearGradient id="linear-gradient-3" x1="-52.48" y1="282.17" x2="889.74" y2="8.39" gradientUnits="userSpaceOnUse">
      <stop offset="0" stop-color="#fff"/>
      <stop offset="1" stop-color="#010001"/>
    </linearGradient>
  </defs>
  <g id="Layer_1-2" data-name="Layer 1">
    <g>
      <polygon class="cls-3" points="161.62 221.08 156.22 221.08 159.88 219.34 161.62 221.08"/>
      <path class="cls-1" d="M567.93,167.57l-111.62-42.33-173.74,172.32-77.55-60.05-.07-.05c1.93-17.49,3.83-57.13,3.23-64-.44-5.38-4.5-10.04-4.22-13.45.02-.14.04-.33.09-.56.07-.21.14-.49.23-.79.12-.3.23-.65.35-1.04.14-.37.3-.79.46-1.23.17-.44.38-.93.56-1.44.44-1.11.97-2.39,1.58-3.78.16-.46.37-.93.58-1.41v-.03c.02-.07.07-.16.09-.23.05-.09.09-.21.14-.3.09-.16.19-.37.23-.56.05-.11.12-.25.16-.37.07-.14.14-.3.19-.46.19-.4.35-.79.53-1.21.47-1.07.91-2.16,1.37-3.25.51-1.16,1-2.36,1.51-3.55.21-.51.44-1.02.65-1.53.44-1.02.86-2.04,1.28-3.04.27-.67.55-1.36.83-2.01,1.93-4.69,3.55-8.86,4.25-11.37,5.33-18.93,8.74-39.92,9.99-59.57.19-3.06,1.67-14.26-2.27-15.12-6.4,10.02-6.19,20.81-9.21,31.38-.6,2.09-.53,4.57-1.72,6.22-.09.14-.18.25-.3.37-.09.12-.21.23-.32.35-.12.09-.26.21-.4.3-.18.12-.37.23-.58.33-.41.18-.88.34-1.46.44v-38.28c0-.16-.16-1.07-.46-2.25-.05-.21-.09-.42-.16-.62-.05-.24-.1-.45-.17-.68-.04-.16-.09-.3-.14-.46-.07-.3-.16-.63-.27-.93-.03-.16-.1-.32-.14-.49-.21-.62-.42-1.27-.68-1.85-.23-.58-.48-1.14-.74-1.6-.11-.26-.23-.47-.39-.65-.14-.19-.28-.35-.42-.49-.21-.18-.42-.32-.63-.39-.14-.05-.25-.05-.39,0l-.05,23.38-4.59,24.47-.02-.21-.03.14-4.66-67.38-2.27,8.04-.03,22.25-.02-.09v.11l-6.89-27.88c-1.37,9.77,2.62,22.46-1.58,31.64l-.02.02c-.11.28-.25.56-.42.84-.25.53-.58,1.07-.92,1.55-.17.26-.35.51-.56.75v.02s-.02.02-.05.05l-5.73-30.07-.04,49.34-4.64,26.96v-45.01l-6.98-45.37-4.57,9.26v-.16l-.05.09-.05-20.6-4.59,27.7-.05-.05v.05l-4.57-4.64c.89,3.15.54,6.86-.3,10.69-.23,1.14-.51,2.3-.83,3.43.02.03.02.05,0,.05-.3,1.11-.61,2.23-.93,3.32-.53,1.83-1.07,3.62-1.51,5.29-.11.44-.21.88-.32,1.3-.1.44-.19.85-.28,1.25-.19.93-.35,1.78-.42,2.57-.04.37-.07.77-.07,1.12v67.17c0,2.58,4.69,10.14,2.3,15.13-3.27-.28-4.06-10.42-4.34-13.09-3.25-31.98-2.6-64.2-2.62-96.33-3.13,1.25-3.94,12.08-4.34,15.4-.72,6.5-.14,13.01-.3,19.51-3.41.19-4.08-8.37-4.34-10.76-.83-8.03,0-16.15-.3-24.15l-4.64,27.9c-4.06.56-2.18-5.26-2.29-8.09-.31-7.38.23-14.8-.03-22.15l-4.61,17.46v38.42l-4.64-17.61v-17.03c-4.9-.41-3.09-.55-3.69,3.46-2.69,18.42-2,33.59-.07,51.96l-1.42-6.33c.17,1.71.35,3.43.54,5.19l-8.93-40.31-.33-1.44-6.96,1.37c-1.69,35.51,8.63,69.94,22.43,102.16l-1.83,77.15c-48.78,11.85-65.48,54.39-90.39,91.46-13.92,20.71-44.47,41.03-20.37,65.34,8.72,8.77,16.33,11.28,23.47,10.35.05,0,.1-.02.14-.02,17.17-2.21,31.46-23.9,51.03-24.85.12-.02.24-.02.35-.02.35-.02.7-.05,1.02-.05,1.95-.09,3.95.05,6.01.42,9.93,1.83,14.92,6.26,16.1,16.35,1.69,14.53,2.11,69.52-.56,82.7-2.02,9.93-8.42,17.19-16.47,21.39-.02,0-.02.02-.04.02-.3.16-.58.32-.88.44-14.83,7.82-35.33,5.29-44.66-10.11-5.1-8.4-5.61-16.63-7.77-25.84H3.52c-4.04,64.67,73.6,88.91,117.44,56.43t.05-.02c7.74-5.94,14.38-13.69,19.3-23.29l6.03-28.79c.72.35,1.41.72,2.13,1.07,2.48,24.8,5.68,49.76,13.18,73.46h2.15l10.72-63.86c.14-.04.3-.11.44-.18.07-.02.12-.07.19-.09l23.57-18.05,14.35,26.33.28.51,21.57,39.11h40.16l-47.67-87.94,55.14-42.22,173.81,170.52,113.57-43.82-2-356.25ZM72.55,316.4l8.28-13.66,10.07,5.59c-.02,2.18-16.12,10.09-18.35,8.07ZM180.09,163.09l2.29,6.96h-52l-3.43-3.5-.03-3.46h53.17ZM175.4,202.5l-4.08,1.12c1.48,3.13.95,5.63-.63,7.56-.16.16-.3.32-.44.49-.23.28-.48.53-.79.76-.32.23-.67.49-.99.72-.33.23-.7.47-1.05.65h-.02c-.37.23-.74.4-1.14.56-.44.18-.86.37-1.3.55-.37.14-.74.28-1.13.38-.63.18-1.25.37-1.86.53-.02-.02-.04-.02-.04,0-1.09.23-2.16.42-3.18.51-.56.07-1.12.12-1.65.14h-.07l2.85,2.87-3.66,1.74h-29.27v-26.58l9.18-1.3-8.07-4.57v-.02l2.34-4.64h33.64l-9.21,6.91,11.41.05-.14.05h.07l-6.8,2.29,6.87,2.3-4.59,4.59c3.52,1.11,13.61-2.6,13.82,2.32l-.07.02ZM223.35,356.74c-8.56,8.53-23.41,21.24-34.54,30.78l-.02.02c-1.14.19-2.3.35-3.51.47l-4.61-83.16c2.32-.05,4.52.04,6.66.25,12.5,11.3,25.86,21.97,36.67,34.8.88,5.59.67,11.34-.65,16.84ZM454.69,427.21l-106.31-81.91,106.31-79.63v161.54Z"/>
      <polygon class="cls-2" points="161.62 221.08 156.22 221.08 159.88 219.34 161.62 221.08"/>
    </g>
  </g>
</svg>